<svg width="314" height="224" viewBox="0 0 314 224" fill="none" xmlns="http://www.w3.org/2000/svg">
<path d="M11.8651 131.058V133.898H16.4451V136.538H11.8651V139.618H17.0451V142.358H8.44508V128.318H17.0451V131.058H11.8651ZM23.5054 131.038C24.2921 131.038 24.9787 131.198 25.5654 131.518C26.1654 131.838 26.6254 132.258 26.9454 132.778V131.198H30.3654V142.338C30.3654 143.365 30.1587 144.291 29.7454 145.118C29.3454 145.958 28.7254 146.625 27.8854 147.118C27.0587 147.611 26.0254 147.858 24.7854 147.858C23.1321 147.858 21.7921 147.465 20.7654 146.678C19.7387 145.905 19.1521 144.851 19.0054 143.518H22.3854C22.4921 143.945 22.7454 144.278 23.1454 144.518C23.5454 144.771 24.0387 144.898 24.6254 144.898C25.3321 144.898 25.8921 144.691 26.3054 144.278C26.7321 143.878 26.9454 143.231 26.9454 142.338V140.758C26.6121 141.278 26.1521 141.705 25.5654 142.038C24.9787 142.358 24.2921 142.518 23.5054 142.518C22.5854 142.518 21.7521 142.285 21.0054 141.818C20.2587 141.338 19.6654 140.665 19.2254 139.798C18.7987 138.918 18.5854 137.905 18.5854 136.758C18.5854 135.611 18.7987 134.605 19.2254 133.738C19.6654 132.871 20.2587 132.205 21.0054 131.738C21.7521 131.271 22.5854 131.038 23.5054 131.038ZM26.9454 136.778C26.9454 135.925 26.7054 135.251 26.2254 134.758C25.7587 134.265 25.1854 134.018 24.5054 134.018C23.8254 134.018 23.2454 134.265 22.7654 134.758C22.2987 135.238 22.0654 135.905 22.0654 136.758C22.0654 137.611 22.2987 138.291 22.7654 138.798C23.2454 139.291 23.8254 139.538 24.5054 139.538C25.1854 139.538 25.7587 139.291 26.2254 138.798C26.7054 138.305 26.9454 137.631 26.9454 136.778ZM37.0796 131.038C37.8663 131.038 38.5529 131.198 39.1396 131.518C39.7396 131.838 40.1996 132.258 40.5196 132.778V131.198H43.9396V142.338C43.9396 143.365 43.7329 144.291 43.3196 145.118C42.9196 145.958 42.2996 146.625 41.4596 147.118C40.6329 147.611 39.5996 147.858 38.3596 147.858C36.7063 147.858 35.3663 147.465 34.3396 146.678C33.3129 145.905 32.7263 144.851 32.5796 143.518H35.9596C36.0663 143.945 36.3196 144.278 36.7196 144.518C37.1196 144.771 37.6129 144.898 38.1996 144.898C38.9063 144.898 39.4663 144.691 39.8796 144.278C40.3063 143.878 40.5196 143.231 40.5196 142.338V140.758C40.1863 141.278 39.7263 141.705 39.1396 142.038C38.5529 142.358 37.8663 142.518 37.0796 142.518C36.1596 142.518 35.3263 142.285 34.5796 141.818C33.8329 141.338 33.2396 140.665 32.7996 139.798C32.3729 138.918 32.1596 137.905 32.1596 136.758C32.1596 135.611 32.3729 134.605 32.7996 133.738C33.2396 132.871 33.8329 132.205 34.5796 131.738C35.3263 131.271 36.1596 131.038 37.0796 131.038ZM40.5196 136.778C40.5196 135.925 40.2796 135.251 39.7996 134.758C39.3329 134.265 38.7596 134.018 38.0796 134.018C37.3996 134.018 36.8196 134.265 36.3396 134.758C35.8729 135.238 35.6396 135.905 35.6396 136.758C35.6396 137.611 35.8729 138.291 36.3396 138.798C36.8196 139.291 37.3996 139.538 38.0796 139.538C38.7596 139.538 39.3329 139.291 39.7996 138.798C40.2796 138.305 40.5196 137.631 40.5196 136.778ZM61.3521 132.838C61.3521 133.651 61.1654 134.398 60.7921 135.078C60.4188 135.745 59.8454 136.285 59.0721 136.698C58.2988 137.111 57.3388 137.318 56.1921 137.318H54.0721V142.358H50.6521V128.318H56.1921C57.3121 128.318 58.2588 128.511 59.0321 128.898C59.8054 129.285 60.3854 129.818 60.7721 130.498C61.1588 131.178 61.3521 131.958 61.3521 132.838ZM55.9321 134.598C56.5854 134.598 57.0721 134.445 57.3921 134.138C57.7121 133.831 57.8721 133.398 57.8721 132.838C57.8721 132.278 57.7121 131.845 57.3921 131.538C57.0721 131.231 56.5854 131.078 55.9321 131.078H54.0721V134.598H55.9321ZM66.5526 133.058C66.9526 132.445 67.4526 131.965 68.0526 131.618C68.6526 131.258 69.3192 131.078 70.0526 131.078V134.698H69.1126C68.2592 134.698 67.6192 134.885 67.1926 135.258C66.7659 135.618 66.5526 136.258 66.5526 137.178V142.358H63.1326V131.198H66.5526V133.058ZM76.7673 142.518C75.6739 142.518 74.6873 142.285 73.8073 141.818C72.9406 141.351 72.2539 140.685 71.7473 139.818C71.2539 138.951 71.0073 137.938 71.0073 136.778C71.0073 135.631 71.2606 134.625 71.7673 133.758C72.2739 132.878 72.9673 132.205 73.8473 131.738C74.7273 131.271 75.7139 131.038 76.8073 131.038C77.9006 131.038 78.8873 131.271 79.7673 131.738C80.6473 132.205 81.3406 132.878 81.8473 133.758C82.3539 134.625 82.6073 135.631 82.6073 136.778C82.6073 137.925 82.3473 138.938 81.8273 139.818C81.3206 140.685 80.6206 141.351 79.7273 141.818C78.8473 142.285 77.8606 142.518 76.7673 142.518ZM76.7673 139.558C77.4206 139.558 77.9739 139.318 78.4273 138.838C78.8939 138.358 79.1273 137.671 79.1273 136.778C79.1273 135.885 78.9006 135.198 78.4473 134.718C78.0073 134.238 77.4606 133.998 76.8073 133.998C76.1406 133.998 75.5873 134.238 75.1473 134.718C74.7073 135.185 74.4873 135.871 74.4873 136.778C74.4873 137.671 74.7006 138.358 75.1273 138.838C75.5673 139.318 76.1139 139.558 76.7673 139.558ZM83.7416 136.758C83.7416 135.611 83.955 134.605 84.3816 133.738C84.8216 132.871 85.415 132.205 86.1616 131.738C86.9083 131.271 87.7416 131.038 88.6616 131.038C89.395 131.038 90.0616 131.191 90.6616 131.498C91.275 131.805 91.755 132.218 92.1016 132.738V127.558H95.5216V142.358H92.1016V140.758C91.7816 141.291 91.3216 141.718 90.7216 142.038C90.135 142.358 89.4483 142.518 88.6616 142.518C87.7416 142.518 86.9083 142.285 86.1616 141.818C85.415 141.338 84.8216 140.665 84.3816 139.798C83.955 138.918 83.7416 137.905 83.7416 136.758ZM92.1016 136.778C92.1016 135.925 91.8616 135.251 91.3816 134.758C90.915 134.265 90.3416 134.018 89.6616 134.018C88.9816 134.018 88.4016 134.265 87.9216 134.758C87.455 135.238 87.2216 135.905 87.2216 136.758C87.2216 137.611 87.455 138.291 87.9216 138.798C88.4016 139.291 88.9816 139.538 89.6616 139.538C90.3416 139.538 90.915 139.291 91.3816 138.798C91.8616 138.305 92.1016 137.631 92.1016 136.778ZM109.016 131.198V142.358H105.596V140.838C105.249 141.331 104.776 141.731 104.176 142.038C103.589 142.331 102.936 142.478 102.216 142.478C101.363 142.478 100.609 142.291 99.9559 141.918C99.3025 141.531 98.7959 140.978 98.4359 140.258C98.0759 139.538 97.8959 138.691 97.8959 137.718V131.198H101.296V137.258C101.296 138.005 101.489 138.585 101.876 138.998C102.263 139.411 102.783 139.618 103.436 139.618C104.103 139.618 104.629 139.411 105.016 138.998C105.403 138.585 105.596 138.005 105.596 137.258V131.198H109.016ZM110.792 136.778C110.792 135.618 111.026 134.605 111.492 133.738C111.972 132.871 112.632 132.205 113.472 131.738C114.326 131.271 115.299 131.038 116.392 131.038C117.792 131.038 118.959 131.405 119.892 132.138C120.839 132.871 121.459 133.905 121.752 135.238H118.112C117.806 134.385 117.212 133.958 116.332 133.958C115.706 133.958 115.206 134.205 114.832 134.698C114.459 135.178 114.272 135.871 114.272 136.778C114.272 137.685 114.459 138.385 114.832 138.878C115.206 139.358 115.706 139.598 116.332 139.598C117.212 139.598 117.806 139.171 118.112 138.318H121.752C121.459 139.625 120.839 140.651 119.892 141.398C118.946 142.145 117.779 142.518 116.392 142.518C115.299 142.518 114.326 142.285 113.472 141.818C112.632 141.351 111.972 140.685 111.492 139.818C111.026 138.951 110.792 137.938 110.792 136.778ZM129.802 139.458V142.358H128.062C126.822 142.358 125.855 142.058 125.162 141.458C124.468 140.845 124.122 139.851 124.122 138.478V134.038H122.762V131.198H124.122V128.478H127.542V131.198H129.782V134.038H127.542V138.518C127.542 138.851 127.622 139.091 127.782 139.238C127.942 139.385 128.208 139.458 128.582 139.458H129.802ZM133.427 130.038C132.827 130.038 132.333 129.865 131.947 129.518C131.573 129.158 131.387 128.718 131.387 128.198C131.387 127.665 131.573 127.225 131.947 126.878C132.333 126.518 132.827 126.338 133.427 126.338C134.013 126.338 134.493 126.518 134.867 126.878C135.253 127.225 135.447 127.665 135.447 128.198C135.447 128.718 135.253 129.158 134.867 129.518C134.493 129.865 134.013 130.038 133.427 130.038ZM135.127 131.198V142.358H131.707V131.198H135.127ZM142.685 142.518C141.592 142.518 140.605 142.285 139.725 141.818C138.859 141.351 138.172 140.685 137.665 139.818C137.172 138.951 136.925 137.938 136.925 136.778C136.925 135.631 137.179 134.625 137.685 133.758C138.192 132.878 138.885 132.205 139.765 131.738C140.645 131.271 141.632 131.038 142.725 131.038C143.819 131.038 144.805 131.271 145.685 131.738C146.565 132.205 147.259 132.878 147.765 133.758C148.272 134.625 148.525 135.631 148.525 136.778C148.525 137.925 148.265 138.938 147.745 139.818C147.239 140.685 146.539 141.351 145.645 141.818C144.765 142.285 143.779 142.518 142.685 142.518ZM142.685 139.558C143.339 139.558 143.892 139.318 144.345 138.838C144.812 138.358 145.045 137.671 145.045 136.778C145.045 135.885 144.819 135.198 144.365 134.718C143.925 134.238 143.379 133.998 142.725 133.998C142.059 133.998 141.505 134.238 141.065 134.718C140.625 135.185 140.405 135.871 140.405 136.778C140.405 137.671 140.619 138.358 141.045 138.838C141.485 139.318 142.032 139.558 142.685 139.558ZM157.14 131.078C158.446 131.078 159.486 131.505 160.26 132.358C161.046 133.198 161.44 134.358 161.44 135.838V142.358H158.04V136.298C158.04 135.551 157.846 134.971 157.46 134.558C157.073 134.145 156.553 133.938 155.9 133.938C155.246 133.938 154.726 134.145 154.34 134.558C153.953 134.971 153.76 135.551 153.76 136.298V142.358H150.34V131.198H153.76V132.678C154.106 132.185 154.573 131.798 155.16 131.518C155.746 131.225 156.406 131.078 157.14 131.078ZM183.954 128.318V142.358H180.534V133.938L177.394 142.358H174.634L171.474 133.918V142.358H168.054V128.318H172.094L176.034 138.038L179.934 128.318H183.954ZM185.734 136.758C185.734 135.611 185.947 134.605 186.374 133.738C186.814 132.871 187.407 132.205 188.154 131.738C188.9 131.271 189.734 131.038 190.654 131.038C191.44 131.038 192.127 131.198 192.714 131.518C193.314 131.838 193.774 132.258 194.094 132.778V131.198H197.514V142.358H194.094V140.778C193.76 141.298 193.294 141.718 192.694 142.038C192.107 142.358 191.42 142.518 190.634 142.518C189.727 142.518 188.9 142.285 188.154 141.818C187.407 141.338 186.814 140.665 186.374 139.798C185.947 138.918 185.734 137.905 185.734 136.758ZM194.094 136.778C194.094 135.925 193.854 135.251 193.374 134.758C192.907 134.265 192.334 134.018 191.654 134.018C190.974 134.018 190.394 134.265 189.914 134.758C189.447 135.238 189.214 135.905 189.214 136.758C189.214 137.611 189.447 138.291 189.914 138.798C190.394 139.291 190.974 139.538 191.654 139.538C192.334 139.538 192.907 139.291 193.374 138.798C193.854 138.305 194.094 137.631 194.094 136.778ZM206.788 131.078C208.095 131.078 209.135 131.505 209.908 132.358C210.695 133.198 211.088 134.358 211.088 135.838V142.358H207.688V136.298C207.688 135.551 207.495 134.971 207.108 134.558C206.721 134.145 206.201 133.938 205.548 133.938C204.895 133.938 204.375 134.145 203.988 134.558C203.601 134.971 203.408 135.551 203.408 136.298V142.358H199.988V131.198H203.408V132.678C203.755 132.185 204.221 131.798 204.808 131.518C205.395 131.225 206.055 131.078 206.788 131.078ZM212.785 136.758C212.785 135.611 212.998 134.605 213.425 133.738C213.865 132.871 214.458 132.205 215.205 131.738C215.951 131.271 216.785 131.038 217.705 131.038C218.491 131.038 219.178 131.198 219.765 131.518C220.365 131.838 220.825 132.258 221.145 132.778V131.198H224.565V142.358H221.145V140.778C220.811 141.298 220.345 141.718 219.745 142.038C219.158 142.358 218.471 142.518 217.685 142.518C216.778 142.518 215.951 142.285 215.205 141.818C214.458 141.338 213.865 140.665 213.425 139.798C212.998 138.918 212.785 137.905 212.785 136.758ZM221.145 136.778C221.145 135.925 220.905 135.251 220.425 134.758C219.958 134.265 219.385 134.018 218.705 134.018C218.025 134.018 217.445 134.265 216.965 134.758C216.498 135.238 216.265 135.905 216.265 136.758C216.265 137.611 216.498 138.291 216.965 138.798C217.445 139.291 218.025 139.538 218.705 139.538C219.385 139.538 219.958 139.291 220.425 138.798C220.905 138.305 221.145 137.631 221.145 136.778ZM231.279 131.038C232.065 131.038 232.752 131.198 233.339 131.518C233.939 131.838 234.399 132.258 234.719 132.778V131.198H238.139V142.338C238.139 143.365 237.932 144.291 237.519 145.118C237.119 145.958 236.499 146.625 235.659 147.118C234.832 147.611 233.799 147.858 232.559 147.858C230.905 147.858 229.565 147.465 228.539 146.678C227.512 145.905 226.925 144.851 226.779 143.518H230.159C230.265 143.945 230.519 144.278 230.919 144.518C231.319 144.771 231.812 144.898 232.399 144.898C233.105 144.898 233.665 144.691 234.079 144.278C234.505 143.878 234.719 143.231 234.719 142.338V140.758C234.385 141.278 233.925 141.705 233.339 142.038C232.752 142.358 232.065 142.518 231.279 142.518C230.359 142.518 229.525 142.285 228.779 141.818C228.032 141.338 227.439 140.665 226.999 139.798C226.572 138.918 226.359 137.905 226.359 136.758C226.359 135.611 226.572 134.605 226.999 133.738C227.439 132.871 228.032 132.205 228.779 131.738C229.525 131.271 230.359 131.038 231.279 131.038ZM234.719 136.778C234.719 135.925 234.479 135.251 233.999 134.758C233.532 134.265 232.959 134.018 232.279 134.018C231.599 134.018 231.019 134.265 230.539 134.758C230.072 135.238 229.839 135.905 229.839 136.758C229.839 137.611 230.072 138.291 230.539 138.798C231.019 139.291 231.599 139.538 232.279 139.538C232.959 139.538 233.532 139.291 233.999 138.798C234.479 138.305 234.719 137.631 234.719 136.778ZM251.133 136.598C251.133 136.918 251.113 137.251 251.073 137.598H243.333C243.386 138.291 243.606 138.825 243.993 139.198C244.393 139.558 244.88 139.738 245.453 139.738C246.306 139.738 246.9 139.378 247.233 138.658H250.873C250.686 139.391 250.346 140.051 249.853 140.638C249.373 141.225 248.766 141.685 248.033 142.018C247.3 142.351 246.48 142.518 245.573 142.518C244.48 142.518 243.506 142.285 242.653 141.818C241.8 141.351 241.133 140.685 240.653 139.818C240.173 138.951 239.933 137.938 239.933 136.778C239.933 135.618 240.166 134.605 240.633 133.738C241.113 132.871 241.78 132.205 242.633 131.738C243.486 131.271 244.466 131.038 245.573 131.038C246.653 131.038 247.613 131.265 248.453 131.718C249.293 132.171 249.946 132.818 250.413 133.658C250.893 134.498 251.133 135.478 251.133 136.598ZM247.633 135.698C247.633 135.111 247.433 134.645 247.033 134.298C246.633 133.951 246.133 133.778 245.533 133.778C244.96 133.778 244.473 133.945 244.073 134.278C243.686 134.611 243.446 135.085 243.353 135.698H247.633ZM267.177 131.078C268.564 131.078 269.664 131.498 270.477 132.338C271.304 133.178 271.717 134.345 271.717 135.838V142.358H268.317V136.298C268.317 135.578 268.124 135.025 267.737 134.638C267.364 134.238 266.844 134.038 266.177 134.038C265.511 134.038 264.984 134.238 264.597 134.638C264.224 135.025 264.037 135.578 264.037 136.298V142.358H260.637V136.298C260.637 135.578 260.444 135.025 260.057 134.638C259.684 134.238 259.164 134.038 258.497 134.038C257.831 134.038 257.304 134.238 256.917 134.638C256.544 135.025 256.357 135.578 256.357 136.298V142.358H252.937V131.198H256.357V132.598C256.704 132.131 257.157 131.765 257.717 131.498C258.277 131.218 258.911 131.078 259.617 131.078C260.457 131.078 261.204 131.258 261.857 131.618C262.524 131.978 263.044 132.491 263.417 133.158C263.804 132.545 264.331 132.045 264.997 131.658C265.664 131.271 266.391 131.078 267.177 131.078ZM284.629 136.598C284.629 136.918 284.609 137.251 284.569 137.598H276.829C276.882 138.291 277.102 138.825 277.489 139.198C277.889 139.558 278.376 139.738 278.949 139.738C279.802 139.738 280.396 139.378 280.729 138.658H284.369C284.182 139.391 283.842 140.051 283.349 140.638C282.869 141.225 282.262 141.685 281.529 142.018C280.796 142.351 279.976 142.518 279.069 142.518C277.976 142.518 277.002 142.285 276.149 141.818C275.296 141.351 274.629 140.685 274.149 139.818C273.669 138.951 273.429 137.938 273.429 136.778C273.429 135.618 273.662 134.605 274.129 133.738C274.609 132.871 275.276 132.205 276.129 131.738C276.982 131.271 277.962 131.038 279.069 131.038C280.149 131.038 281.109 131.265 281.949 131.718C282.789 132.171 283.442 132.818 283.909 133.658C284.389 134.498 284.629 135.478 284.629 136.598ZM281.129 135.698C281.129 135.111 280.929 134.645 280.529 134.298C280.129 133.951 279.629 133.778 279.029 133.778C278.456 133.778 277.969 133.945 277.569 134.278C277.182 134.611 276.942 135.085 276.849 135.698H281.129ZM293.233 131.078C294.54 131.078 295.58 131.505 296.353 132.358C297.14 133.198 297.533 134.358 297.533 135.838V142.358H294.133V136.298C294.133 135.551 293.94 134.971 293.553 134.558C293.167 134.145 292.647 133.938 291.993 133.938C291.34 133.938 290.82 134.145 290.433 134.558C290.047 134.971 289.853 135.551 289.853 136.298V142.358H286.433V131.198H289.853V132.678C290.2 132.185 290.667 131.798 291.253 131.518C291.84 131.225 292.5 131.078 293.233 131.078ZM306.13 139.458V142.358H304.39C303.15 142.358 302.183 142.058 301.49 141.458C300.797 140.845 300.45 139.851 300.45 138.478V134.038H299.09V131.198H300.45V128.478H303.87V131.198H306.11V134.038H303.87V138.518C303.87 138.851 303.95 139.091 304.11 139.238C304.27 139.385 304.537 139.458 304.91 139.458H306.13Z" fill="#006347"/>
<path d="M10.7064 175.279V165.183H7.36244V164.079H15.3944V165.183H12.0504V175.279H10.7064ZM19.1341 175.471C18.3874 175.471 17.7154 175.3 17.1181 174.959C16.5207 174.617 16.0461 174.137 15.6941 173.519C15.3527 172.889 15.1821 172.153 15.1821 171.311C15.1821 170.468 15.3581 169.737 15.7101 169.119C16.0621 168.489 16.5367 168.004 17.1341 167.663C17.7421 167.321 18.4194 167.151 19.1661 167.151C19.9127 167.151 20.5847 167.321 21.1821 167.663C21.7794 168.004 22.2487 168.489 22.5901 169.119C22.9421 169.737 23.1181 170.468 23.1181 171.311C23.1181 172.153 22.9421 172.889 22.5901 173.519C22.2381 174.137 21.7581 174.617 21.1501 174.959C20.5527 175.3 19.8807 175.471 19.1341 175.471ZM19.1341 174.319C19.5927 174.319 20.0194 174.207 20.4141 173.983C20.8087 173.759 21.1287 173.423 21.3741 172.975C21.6194 172.527 21.7421 171.972 21.7421 171.311C21.7421 170.649 21.6194 170.095 21.3741 169.647C21.1394 169.199 20.8247 168.863 20.4301 168.639C20.0354 168.415 19.6141 168.303 19.1661 168.303C18.7074 168.303 18.2807 168.415 17.8861 168.639C17.4914 168.863 17.1714 169.199 16.9261 169.647C16.6807 170.095 16.5581 170.649 16.5581 171.311C16.5581 171.972 16.6807 172.527 16.9261 172.975C17.1714 173.423 17.4861 173.759 17.8701 173.983C18.2647 174.207 18.6861 174.319 19.1341 174.319ZM24.9868 175.279V167.343H26.2028L26.3148 168.863C26.5601 168.34 26.9335 167.924 27.4348 167.615C27.9361 167.305 28.5548 167.151 29.2908 167.151V168.559H28.9228C28.4535 168.559 28.0215 168.644 27.6268 168.815C27.2321 168.975 26.9175 169.252 26.6828 169.647C26.4481 170.041 26.3308 170.585 26.3308 171.279V175.279H24.9868ZM34.0704 175.471C33.3131 175.471 32.6411 175.3 32.0544 174.959C31.4678 174.607 31.0038 174.121 30.6624 173.503C30.3318 172.884 30.1664 172.153 30.1664 171.311C30.1664 170.479 30.3318 169.753 30.6624 169.135C30.9931 168.505 31.4518 168.02 32.0384 167.679C32.6358 167.327 33.3238 167.151 34.1024 167.151C34.8704 167.151 35.5318 167.327 36.0864 167.679C36.6518 168.02 37.0838 168.473 37.3824 169.039C37.6811 169.604 37.8304 170.212 37.8304 170.863C37.8304 170.98 37.8251 171.097 37.8144 171.215C37.8144 171.332 37.8144 171.465 37.8144 171.615H31.4944C31.5264 172.223 31.6651 172.729 31.9104 173.135C32.1664 173.529 32.4811 173.828 32.8544 174.031C33.2384 174.233 33.6438 174.335 34.0704 174.335C34.6251 174.335 35.0891 174.207 35.4624 173.951C35.8358 173.695 36.1078 173.348 36.2784 172.911H37.6064C37.3931 173.647 36.9824 174.26 36.3744 174.751C35.7771 175.231 35.0091 175.471 34.0704 175.471ZM34.0704 168.287C33.4304 168.287 32.8598 168.484 32.3584 168.879C31.8678 169.263 31.5851 169.828 31.5104 170.575H36.5024C36.4704 169.86 36.2251 169.3 35.7664 168.895C35.3078 168.489 34.7424 168.287 34.0704 168.287ZM39.6118 175.279V167.343H40.8278L40.9238 168.495C41.1798 168.068 41.5211 167.737 41.9478 167.503C42.3745 167.268 42.8545 167.151 43.3878 167.151C44.0171 167.151 44.5558 167.279 45.0038 167.535C45.4625 167.791 45.8145 168.18 46.0598 168.703C46.3371 168.223 46.7158 167.844 47.1958 167.567C47.6865 167.289 48.2145 167.151 48.7798 167.151C49.7291 167.151 50.4865 167.439 51.0518 168.015C51.6171 168.58 51.8998 169.455 51.8998 170.639V175.279H50.5718V170.783C50.5718 169.961 50.4065 169.343 50.0758 168.927C49.7451 168.511 49.2705 168.303 48.6518 168.303C48.0118 168.303 47.4785 168.553 47.0518 169.055C46.6358 169.545 46.4278 170.249 46.4278 171.167V175.279H45.0838V170.783C45.0838 169.961 44.9185 169.343 44.5878 168.927C44.2571 168.511 43.7825 168.303 43.1638 168.303C42.5345 168.303 42.0065 168.553 41.5798 169.055C41.1638 169.545 40.9558 170.249 40.9558 171.167V175.279H39.6118ZM58.9747 165.583C58.708 165.583 58.484 165.497 58.3027 165.327C58.132 165.145 58.0467 164.921 58.0467 164.655C58.0467 164.399 58.132 164.185 58.3027 164.015C58.484 163.844 58.708 163.759 58.9747 163.759C59.2307 163.759 59.4494 163.844 59.6307 164.015C59.812 164.185 59.9027 164.399 59.9027 164.655C59.9027 164.921 59.812 165.145 59.6307 165.327C59.4494 165.497 59.2307 165.583 58.9747 165.583ZM58.3027 175.279V167.343H59.6467V175.279H58.3027ZM61.9868 178.799V167.343H63.2028L63.3308 168.655C63.5868 168.271 63.9495 167.924 64.4188 167.615C64.8988 167.305 65.5068 167.151 66.2428 167.151C67.0321 167.151 67.7201 167.332 68.3068 167.695C68.8935 168.057 69.3468 168.553 69.6668 169.183C69.9975 169.812 70.1628 170.527 70.1628 171.327C70.1628 172.127 69.9975 172.841 69.6668 173.471C69.3468 174.089 68.8881 174.58 68.2908 174.943C67.7041 175.295 67.0161 175.471 66.2268 175.471C65.5761 175.471 64.9948 175.337 64.4828 175.071C63.9815 174.804 63.5975 174.431 63.3308 173.951V178.799H61.9868ZM66.0828 174.303C66.6161 174.303 67.0855 174.18 67.4908 173.935C67.8961 173.679 68.2161 173.327 68.4508 172.879C68.6855 172.431 68.8028 171.908 68.8028 171.311C68.8028 170.713 68.6855 170.191 68.4508 169.743C68.2161 169.295 67.8961 168.948 67.4908 168.703C67.0855 168.447 66.6161 168.319 66.0828 168.319C65.5495 168.319 65.0801 168.447 64.6748 168.703C64.2695 168.948 63.9495 169.295 63.7148 169.743C63.4801 170.191 63.3628 170.713 63.3628 171.311C63.3628 171.908 63.4801 172.431 63.7148 172.879C63.9495 173.327 64.2695 173.679 64.6748 173.935C65.0801 174.18 65.5495 174.303 66.0828 174.303ZM75.0737 175.471C74.1244 175.471 73.335 175.231 72.7057 174.751C72.0764 174.271 71.7084 173.62 71.6017 172.799H72.9777C73.063 173.215 73.2817 173.577 73.6337 173.887C73.9964 174.185 74.4817 174.335 75.0897 174.335C75.655 174.335 76.071 174.217 76.3377 173.983C76.6044 173.737 76.7377 173.449 76.7377 173.119C76.7377 172.639 76.5617 172.319 76.2097 172.159C75.8684 171.999 75.383 171.855 74.7537 171.727C74.327 171.641 73.9004 171.519 73.4737 171.359C73.047 171.199 72.6897 170.975 72.4017 170.687C72.1137 170.388 71.9697 169.999 71.9697 169.519C71.9697 168.825 72.2257 168.26 72.7377 167.823C73.2604 167.375 73.9644 167.151 74.8497 167.151C75.6924 167.151 76.3804 167.364 76.9137 167.791C77.4577 168.207 77.7724 168.804 77.8577 169.583H76.5297C76.4764 169.177 76.3004 168.863 76.0017 168.639C75.7137 168.404 75.3244 168.287 74.8337 168.287C74.3537 168.287 73.9804 168.388 73.7137 168.591C73.4577 168.793 73.3297 169.06 73.3297 169.391C73.3297 169.711 73.495 169.961 73.8257 170.143C74.167 170.324 74.6257 170.479 75.2017 170.607C75.6924 170.713 76.1564 170.847 76.5937 171.007C77.0417 171.156 77.4044 171.385 77.6817 171.695C77.9697 171.993 78.1137 172.431 78.1137 173.007C78.1244 173.721 77.8524 174.313 77.2977 174.783C76.7537 175.241 76.0124 175.471 75.0737 175.471ZM82.9297 175.471C81.991 175.471 81.2444 175.188 80.6897 174.623C80.135 174.047 79.8577 173.167 79.8577 171.983V167.343H81.2017V171.839C81.2017 173.492 81.879 174.319 83.2337 174.319C83.927 174.319 84.4977 174.073 84.9457 173.583C85.4044 173.081 85.6337 172.372 85.6337 171.455V167.343H86.9777V175.279H85.7617L85.6657 173.855C85.4204 174.356 85.0524 174.751 84.5617 175.039C84.0817 175.327 83.5377 175.471 82.9297 175.471ZM89.1899 175.279V167.343H90.4059L90.5019 168.495C90.7579 168.068 91.0993 167.737 91.5259 167.503C91.9526 167.268 92.4326 167.151 92.9659 167.151C93.5953 167.151 94.1339 167.279 94.5819 167.535C95.0406 167.791 95.3926 168.18 95.6379 168.703C95.9153 168.223 96.2939 167.844 96.7739 167.567C97.2646 167.289 97.7926 167.151 98.3579 167.151C99.3073 167.151 100.065 167.439 100.63 168.015C101.195 168.58 101.478 169.455 101.478 170.639V175.279H100.15V170.783C100.15 169.961 99.9846 169.343 99.6539 168.927C99.3233 168.511 98.8486 168.303 98.2299 168.303C97.5899 168.303 97.0566 168.553 96.6299 169.055C96.2139 169.545 96.0059 170.249 96.0059 171.167V175.279H94.6619V170.783C94.6619 169.961 94.4966 169.343 94.1659 168.927C93.8353 168.511 93.3606 168.303 92.7419 168.303C92.1126 168.303 91.5846 168.553 91.1579 169.055C90.7419 169.545 90.5339 170.249 90.5339 171.167V175.279H89.1899ZM111.337 175.471C110.547 175.471 109.854 175.289 109.257 174.927C108.67 174.564 108.211 174.068 107.881 173.439C107.561 172.809 107.401 172.095 107.401 171.295C107.401 170.495 107.566 169.785 107.897 169.167C108.227 168.537 108.686 168.047 109.273 167.695C109.859 167.332 110.553 167.151 111.353 167.151C112.003 167.151 112.579 167.284 113.081 167.551C113.582 167.817 113.971 168.191 114.249 168.671V163.759H115.593V175.279H114.377L114.249 173.967C113.993 174.351 113.625 174.697 113.145 175.007C112.665 175.316 112.062 175.471 111.337 175.471ZM111.481 174.303C112.014 174.303 112.483 174.18 112.889 173.935C113.305 173.679 113.625 173.327 113.849 172.879C114.083 172.431 114.201 171.908 114.201 171.311C114.201 170.713 114.083 170.191 113.849 169.743C113.625 169.295 113.305 168.948 112.889 168.703C112.483 168.447 112.014 168.319 111.481 168.319C110.958 168.319 110.489 168.447 110.073 168.703C109.667 168.948 109.347 169.295 109.113 169.743C108.889 170.191 108.777 170.713 108.777 171.311C108.777 171.908 108.889 172.431 109.113 172.879C109.347 173.327 109.667 173.679 110.073 173.935C110.489 174.18 110.958 174.303 111.481 174.303ZM121.4 175.471C120.653 175.471 119.981 175.3 119.384 174.959C118.786 174.617 118.312 174.137 117.96 173.519C117.618 172.889 117.448 172.153 117.448 171.311C117.448 170.468 117.624 169.737 117.976 169.119C118.328 168.489 118.802 168.004 119.4 167.663C120.008 167.321 120.685 167.151 121.432 167.151C122.178 167.151 122.85 167.321 123.448 167.663C124.045 168.004 124.514 168.489 124.856 169.119C125.208 169.737 125.384 170.468 125.384 171.311C125.384 172.153 125.208 172.889 124.856 173.519C124.504 174.137 124.024 174.617 123.416 174.959C122.818 175.3 122.146 175.471 121.4 175.471ZM121.4 174.319C121.858 174.319 122.285 174.207 122.68 173.983C123.074 173.759 123.394 173.423 123.64 172.975C123.885 172.527 124.008 171.972 124.008 171.311C124.008 170.649 123.885 170.095 123.64 169.647C123.405 169.199 123.09 168.863 122.696 168.639C122.301 168.415 121.88 168.303 121.432 168.303C120.973 168.303 120.546 168.415 120.152 168.639C119.757 168.863 119.437 169.199 119.192 169.647C118.946 170.095 118.824 170.649 118.824 171.311C118.824 171.972 118.946 172.527 119.192 172.975C119.437 173.423 119.752 173.759 120.136 173.983C120.53 174.207 120.952 174.319 121.4 174.319ZM127.252 175.279V163.759H128.596V175.279H127.252ZM134.415 175.471C133.669 175.471 132.997 175.3 132.399 174.959C131.802 174.617 131.327 174.137 130.975 173.519C130.634 172.889 130.463 172.153 130.463 171.311C130.463 170.468 130.639 169.737 130.991 169.119C131.343 168.489 131.818 168.004 132.415 167.663C133.023 167.321 133.701 167.151 134.447 167.151C135.194 167.151 135.866 167.321 136.463 167.663C137.061 168.004 137.53 168.489 137.871 169.119C138.223 169.737 138.399 170.468 138.399 171.311C138.399 172.153 138.223 172.889 137.871 173.519C137.519 174.137 137.039 174.617 136.431 174.959C135.834 175.3 135.162 175.471 134.415 175.471ZM134.415 174.319C134.874 174.319 135.301 174.207 135.695 173.983C136.09 173.759 136.41 173.423 136.655 172.975C136.901 172.527 137.023 171.972 137.023 171.311C137.023 170.649 136.901 170.095 136.655 169.647C136.421 169.199 136.106 168.863 135.711 168.639C135.317 168.415 134.895 168.303 134.447 168.303C133.989 168.303 133.562 168.415 133.167 168.639C132.773 168.863 132.453 169.199 132.207 169.647C131.962 170.095 131.839 170.649 131.839 171.311C131.839 171.972 131.962 172.527 132.207 172.975C132.453 173.423 132.767 173.759 133.151 173.983C133.546 174.207 133.967 174.319 134.415 174.319ZM140.268 175.279V167.343H141.484L141.596 168.863C141.841 168.34 142.215 167.924 142.716 167.615C143.217 167.305 143.836 167.151 144.572 167.151V168.559H144.204C143.735 168.559 143.303 168.644 142.908 168.815C142.513 168.975 142.199 169.252 141.964 169.647C141.729 170.041 141.612 170.585 141.612 171.279V175.279H140.268ZM153.355 175.471C152.406 175.471 151.616 175.231 150.987 174.751C150.358 174.271 149.99 173.62 149.883 172.799H151.259C151.344 173.215 151.563 173.577 151.915 173.887C152.278 174.185 152.763 174.335 153.371 174.335C153.936 174.335 154.352 174.217 154.619 173.983C154.886 173.737 155.019 173.449 155.019 173.119C155.019 172.639 154.843 172.319 154.491 172.159C154.15 171.999 153.664 171.855 153.035 171.727C152.608 171.641 152.182 171.519 151.755 171.359C151.328 171.199 150.971 170.975 150.683 170.687C150.395 170.388 150.251 169.999 150.251 169.519C150.251 168.825 150.507 168.26 151.019 167.823C151.542 167.375 152.246 167.151 153.131 167.151C153.974 167.151 154.662 167.364 155.195 167.791C155.739 168.207 156.054 168.804 156.139 169.583H154.811C154.758 169.177 154.582 168.863 154.283 168.639C153.995 168.404 153.606 168.287 153.115 168.287C152.635 168.287 152.262 168.388 151.995 168.591C151.739 168.793 151.611 169.06 151.611 169.391C151.611 169.711 151.776 169.961 152.107 170.143C152.448 170.324 152.907 170.479 153.483 170.607C153.974 170.713 154.438 170.847 154.875 171.007C155.323 171.156 155.686 171.385 155.963 171.695C156.251 171.993 156.395 172.431 156.395 173.007C156.406 173.721 156.134 174.313 155.579 174.783C155.035 175.241 154.294 175.471 153.355 175.471ZM159.131 165.583C158.864 165.583 158.64 165.497 158.459 165.327C158.288 165.145 158.203 164.921 158.203 164.655C158.203 164.399 158.288 164.185 158.459 164.015C158.64 163.844 158.864 163.759 159.131 163.759C159.387 163.759 159.606 163.844 159.787 164.015C159.968 164.185 160.059 164.399 160.059 164.655C160.059 164.921 159.968 165.145 159.787 165.327C159.606 165.497 159.387 165.583 159.131 165.583ZM158.459 175.279V167.343H159.803V175.279H158.459ZM165.279 175.279C164.554 175.279 163.983 175.103 163.567 174.751C163.151 174.399 162.943 173.764 162.943 172.847V168.479H161.567V167.343H162.943L163.119 165.439H164.287V167.343H166.623V168.479H164.287V172.847C164.287 173.348 164.388 173.689 164.591 173.871C164.794 174.041 165.151 174.127 165.663 174.127H166.495V175.279H165.279ZM175.205 175.471C174.544 175.471 173.994 175.359 173.557 175.135C173.12 174.911 172.794 174.612 172.581 174.239C172.368 173.865 172.261 173.46 172.261 173.023C172.261 172.212 172.57 171.588 173.189 171.151C173.808 170.713 174.65 170.495 175.717 170.495H177.861V170.399C177.861 169.705 177.68 169.183 177.317 168.831C176.954 168.468 176.469 168.287 175.861 168.287C175.338 168.287 174.885 168.42 174.501 168.687C174.128 168.943 173.893 169.321 173.797 169.823H172.421C172.474 169.247 172.666 168.761 172.997 168.367C173.338 167.972 173.76 167.673 174.261 167.471C174.762 167.257 175.296 167.151 175.861 167.151C176.97 167.151 177.802 167.449 178.357 168.047C178.922 168.633 179.205 169.417 179.205 170.399V175.279H178.005L177.925 173.855C177.701 174.303 177.37 174.687 176.933 175.007C176.506 175.316 175.93 175.471 175.205 175.471ZM175.413 174.335C175.925 174.335 176.362 174.201 176.725 173.935C177.098 173.668 177.381 173.321 177.573 172.895C177.765 172.468 177.861 172.02 177.861 171.551V171.535H175.829C175.04 171.535 174.48 171.673 174.149 171.951C173.829 172.217 173.669 172.553 173.669 172.959C173.669 173.375 173.818 173.711 174.117 173.967C174.426 174.212 174.858 174.335 175.413 174.335ZM181.221 175.279V167.343H182.437L182.533 168.495C182.789 168.068 183.131 167.737 183.557 167.503C183.984 167.268 184.464 167.151 184.997 167.151C185.627 167.151 186.165 167.279 186.613 167.535C187.072 167.791 187.424 168.18 187.669 168.703C187.947 168.223 188.325 167.844 188.805 167.567C189.296 167.289 189.824 167.151 190.389 167.151C191.339 167.151 192.096 167.439 192.661 168.015C193.227 168.58 193.509 169.455 193.509 170.639V175.279H192.181V170.783C192.181 169.961 192.016 169.343 191.685 168.927C191.355 168.511 190.88 168.303 190.261 168.303C189.621 168.303 189.088 168.553 188.661 169.055C188.245 169.545 188.037 170.249 188.037 171.167V175.279H186.693V170.783C186.693 169.961 186.528 169.343 186.197 168.927C185.867 168.511 185.392 168.303 184.773 168.303C184.144 168.303 183.616 168.553 183.189 169.055C182.773 169.545 182.565 170.249 182.565 171.167V175.279H181.221ZM199.102 175.471C198.344 175.471 197.672 175.3 197.086 174.959C196.499 174.607 196.035 174.121 195.694 173.503C195.363 172.884 195.198 172.153 195.198 171.311C195.198 170.479 195.363 169.753 195.694 169.135C196.024 168.505 196.483 168.02 197.07 167.679C197.667 167.327 198.355 167.151 199.134 167.151C199.902 167.151 200.563 167.327 201.118 167.679C201.683 168.02 202.115 168.473 202.414 169.039C202.712 169.604 202.862 170.212 202.862 170.863C202.862 170.98 202.856 171.097 202.846 171.215C202.846 171.332 202.846 171.465 202.846 171.615H196.526C196.558 172.223 196.696 172.729 196.942 173.135C197.198 173.529 197.512 173.828 197.886 174.031C198.27 174.233 198.675 174.335 199.102 174.335C199.656 174.335 200.12 174.207 200.494 173.951C200.867 173.695 201.139 173.348 201.31 172.911H202.638C202.424 173.647 202.014 174.26 201.406 174.751C200.808 175.231 200.04 175.471 199.102 175.471ZM199.102 168.287C198.462 168.287 197.891 168.484 197.39 168.879C196.899 169.263 196.616 169.828 196.542 170.575H201.534C201.502 169.86 201.256 169.3 200.798 168.895C200.339 168.489 199.774 168.287 199.102 168.287ZM207.513 175.279C206.788 175.279 206.217 175.103 205.801 174.751C205.385 174.399 205.177 173.764 205.177 172.847V168.479H203.801V167.343H205.177L205.353 165.439H206.521V167.343H208.857V168.479H206.521V172.847C206.521 173.348 206.623 173.689 206.825 173.871C207.028 174.041 207.385 174.127 207.897 174.127H208.729V175.279H207.513ZM210.321 177.183L211.249 173.647H212.641L211.249 177.183H210.321ZM222.119 175.471C221.362 175.471 220.679 175.3 220.071 174.959C219.474 174.607 218.999 174.121 218.647 173.503C218.306 172.873 218.135 172.143 218.135 171.311C218.135 170.479 218.306 169.753 218.647 169.135C218.999 168.505 219.474 168.02 220.071 167.679C220.679 167.327 221.362 167.151 222.119 167.151C223.058 167.151 223.847 167.396 224.487 167.887C225.138 168.377 225.549 169.033 225.719 169.855H224.343C224.237 169.364 223.975 168.985 223.559 168.719C223.143 168.441 222.658 168.303 222.103 168.303C221.655 168.303 221.234 168.415 220.839 168.639C220.445 168.863 220.125 169.199 219.879 169.647C219.634 170.095 219.511 170.649 219.511 171.311C219.511 171.972 219.634 172.527 219.879 172.975C220.125 173.423 220.445 173.764 220.839 173.999C221.234 174.223 221.655 174.335 222.103 174.335C222.658 174.335 223.143 174.201 223.559 173.935C223.975 173.657 224.237 173.268 224.343 172.767H225.719C225.559 173.567 225.154 174.217 224.503 174.719C223.853 175.22 223.058 175.471 222.119 175.471ZM231.212 175.471C230.466 175.471 229.794 175.3 229.196 174.959C228.599 174.617 228.124 174.137 227.772 173.519C227.431 172.889 227.26 172.153 227.26 171.311C227.26 170.468 227.436 169.737 227.788 169.119C228.14 168.489 228.615 168.004 229.212 167.663C229.82 167.321 230.498 167.151 231.244 167.151C231.991 167.151 232.663 167.321 233.26 167.663C233.858 168.004 234.327 168.489 234.668 169.119C235.02 169.737 235.196 170.468 235.196 171.311C235.196 172.153 235.02 172.889 234.668 173.519C234.316 174.137 233.836 174.617 233.228 174.959C232.631 175.3 231.959 175.471 231.212 175.471ZM231.212 174.319C231.671 174.319 232.098 174.207 232.492 173.983C232.887 173.759 233.207 173.423 233.452 172.975C233.698 172.527 233.82 171.972 233.82 171.311C233.82 170.649 233.698 170.095 233.452 169.647C233.218 169.199 232.903 168.863 232.508 168.639C232.114 168.415 231.692 168.303 231.244 168.303C230.786 168.303 230.359 168.415 229.964 168.639C229.57 168.863 229.25 169.199 229.004 169.647C228.759 170.095 228.636 170.649 228.636 171.311C228.636 171.972 228.759 172.527 229.004 172.975C229.25 173.423 229.564 173.759 229.948 173.983C230.343 174.207 230.764 174.319 231.212 174.319ZM237.065 175.279V167.343H238.281L238.361 168.767C238.617 168.265 238.985 167.871 239.465 167.583C239.945 167.295 240.489 167.151 241.097 167.151C242.036 167.151 242.782 167.439 243.337 168.015C243.902 168.58 244.185 169.455 244.185 170.639V175.279H242.841V170.783C242.841 169.129 242.158 168.303 240.793 168.303C240.11 168.303 239.54 168.553 239.081 169.055C238.633 169.545 238.409 170.249 238.409 171.167V175.279H237.065ZM249.261 175.471C248.312 175.471 247.523 175.231 246.893 174.751C246.264 174.271 245.896 173.62 245.789 172.799H247.165C247.251 173.215 247.469 173.577 247.821 173.887C248.184 174.185 248.669 174.335 249.277 174.335C249.843 174.335 250.259 174.217 250.525 173.983C250.792 173.737 250.925 173.449 250.925 173.119C250.925 172.639 250.749 172.319 250.397 172.159C250.056 171.999 249.571 171.855 248.941 171.727C248.515 171.641 248.088 171.519 247.661 171.359C247.235 171.199 246.877 170.975 246.589 170.687C246.301 170.388 246.157 169.999 246.157 169.519C246.157 168.825 246.413 168.26 246.925 167.823C247.448 167.375 248.152 167.151 249.037 167.151C249.88 167.151 250.568 167.364 251.101 167.791C251.645 168.207 251.96 168.804 252.045 169.583H250.717C250.664 169.177 250.488 168.863 250.189 168.639C249.901 168.404 249.512 168.287 249.021 168.287C248.541 168.287 248.168 168.388 247.901 168.591C247.645 168.793 247.517 169.06 247.517 169.391C247.517 169.711 247.683 169.961 248.013 170.143C248.355 170.324 248.813 170.479 249.389 170.607C249.88 170.713 250.344 170.847 250.781 171.007C251.229 171.156 251.592 171.385 251.869 171.695C252.157 171.993 252.301 172.431 252.301 173.007C252.312 173.721 252.04 174.313 251.485 174.783C250.941 175.241 250.2 175.471 249.261 175.471ZM257.789 175.471C257.032 175.471 256.36 175.3 255.773 174.959C255.187 174.607 254.723 174.121 254.381 173.503C254.051 172.884 253.885 172.153 253.885 171.311C253.885 170.479 254.051 169.753 254.381 169.135C254.712 168.505 255.171 168.02 255.757 167.679C256.355 167.327 257.043 167.151 257.821 167.151C258.589 167.151 259.251 167.327 259.805 167.679C260.371 168.02 260.803 168.473 261.101 169.039C261.4 169.604 261.549 170.212 261.549 170.863C261.549 170.98 261.544 171.097 261.533 171.215C261.533 171.332 261.533 171.465 261.533 171.615H255.213C255.245 172.223 255.384 172.729 255.629 173.135C255.885 173.529 256.2 173.828 256.573 174.031C256.957 174.233 257.363 174.335 257.789 174.335C258.344 174.335 258.808 174.207 259.181 173.951C259.555 173.695 259.827 173.348 259.997 172.911H261.325C261.112 173.647 260.701 174.26 260.093 174.751C259.496 175.231 258.728 175.471 257.789 175.471ZM257.789 168.287C257.149 168.287 256.579 168.484 256.077 168.879C255.587 169.263 255.304 169.828 255.229 170.575H260.221C260.189 169.86 259.944 169.3 259.485 168.895C259.027 168.489 258.461 168.287 257.789 168.287ZM266.979 175.471C266.221 175.471 265.539 175.3 264.931 174.959C264.333 174.607 263.859 174.121 263.507 173.503C263.165 172.873 262.995 172.143 262.995 171.311C262.995 170.479 263.165 169.753 263.507 169.135C263.859 168.505 264.333 168.02 264.931 167.679C265.539 167.327 266.221 167.151 266.979 167.151C267.917 167.151 268.707 167.396 269.347 167.887C269.997 168.377 270.408 169.033 270.579 169.855H269.203C269.096 169.364 268.835 168.985 268.419 168.719C268.003 168.441 267.517 168.303 266.963 168.303C266.515 168.303 266.093 168.415 265.699 168.639C265.304 168.863 264.984 169.199 264.739 169.647C264.493 170.095 264.371 170.649 264.371 171.311C264.371 171.972 264.493 172.527 264.739 172.975C264.984 173.423 265.304 173.764 265.699 173.999C266.093 174.223 266.515 174.335 266.963 174.335C267.517 174.335 268.003 174.201 268.419 173.935C268.835 173.657 269.096 173.268 269.203 172.767H270.579C270.419 173.567 270.013 174.217 269.363 174.719C268.712 175.22 267.917 175.471 266.979 175.471ZM275.373 175.279C274.647 175.279 274.077 175.103 273.661 174.751C273.245 174.399 273.037 173.764 273.037 172.847V168.479H271.661V167.343H273.037L273.213 165.439H274.381V167.343H276.717V168.479H274.381V172.847C274.381 173.348 274.482 173.689 274.685 173.871C274.887 174.041 275.245 174.127 275.757 174.127H276.589V175.279H275.373ZM281.774 175.471C281.016 175.471 280.344 175.3 279.758 174.959C279.171 174.607 278.707 174.121 278.366 173.503C278.035 172.884 277.87 172.153 277.87 171.311C277.87 170.479 278.035 169.753 278.366 169.135C278.696 168.505 279.155 168.02 279.742 167.679C280.339 167.327 281.027 167.151 281.806 167.151C282.574 167.151 283.235 167.327 283.79 167.679C284.355 168.02 284.787 168.473 285.086 169.039C285.384 169.604 285.534 170.212 285.534 170.863C285.534 170.98 285.528 171.097 285.518 171.215C285.518 171.332 285.518 171.465 285.518 171.615H279.198C279.23 172.223 279.368 172.729 279.614 173.135C279.87 173.529 280.184 173.828 280.558 174.031C280.942 174.233 281.347 174.335 281.774 174.335C282.328 174.335 282.792 174.207 283.166 173.951C283.539 173.695 283.811 173.348 283.982 172.911H285.31C285.096 173.647 284.686 174.26 284.078 174.751C283.48 175.231 282.712 175.471 281.774 175.471ZM281.774 168.287C281.134 168.287 280.563 168.484 280.062 168.879C279.571 169.263 279.288 169.828 279.214 170.575H284.206C284.174 169.86 283.928 169.3 283.47 168.895C283.011 168.489 282.446 168.287 281.774 168.287ZM290.185 175.279C289.46 175.279 288.889 175.103 288.473 174.751C288.057 174.399 287.849 173.764 287.849 172.847V168.479H286.473V167.343H287.849L288.025 165.439H289.193V167.343H291.529V168.479H289.193V172.847C289.193 173.348 289.295 173.689 289.497 173.871C289.7 174.041 290.057 174.127 290.569 174.127H291.401V175.279H290.185ZM296.133 175.471C295.194 175.471 294.447 175.188 293.893 174.623C293.338 174.047 293.061 173.167 293.061 171.983V167.343H294.405V171.839C294.405 173.492 295.082 174.319 296.437 174.319C297.13 174.319 297.701 174.073 298.149 173.583C298.607 173.081 298.837 172.372 298.837 171.455V167.343H300.181V175.279H298.965L298.869 173.855C298.623 174.356 298.255 174.751 297.765 175.039C297.285 175.327 296.741 175.471 296.133 175.471ZM302.393 175.279V167.343H303.609L303.721 168.863C303.966 168.34 304.34 167.924 304.841 167.615C305.342 167.305 305.961 167.151 306.697 167.151V168.559H306.329C305.86 168.559 305.428 168.644 305.033 168.815C304.638 168.975 304.324 169.252 304.089 169.647C303.854 170.041 303.737 170.585 303.737 171.279V175.279H302.393ZM108.057 199.471C107.395 199.471 106.846 199.359 106.409 199.135C105.971 198.911 105.646 198.612 105.433 198.239C105.219 197.865 105.113 197.46 105.113 197.023C105.113 196.212 105.422 195.588 106.041 195.151C106.659 194.713 107.502 194.495 108.569 194.495H110.713V194.399C110.713 193.705 110.531 193.183 110.169 192.831C109.806 192.468 109.321 192.287 108.713 192.287C108.19 192.287 107.737 192.42 107.353 192.687C106.979 192.943 106.745 193.321 106.649 193.823H105.273C105.326 193.247 105.518 192.761 105.849 192.367C106.19 191.972 106.611 191.673 107.113 191.471C107.614 191.257 108.147 191.151 108.713 191.151C109.822 191.151 110.654 191.449 111.209 192.047C111.774 192.633 112.057 193.417 112.057 194.399V199.279H110.857L110.777 197.855C110.553 198.303 110.222 198.687 109.785 199.007C109.358 199.316 108.782 199.471 108.057 199.471ZM108.265 198.335C108.777 198.335 109.214 198.201 109.577 197.935C109.95 197.668 110.233 197.321 110.425 196.895C110.617 196.468 110.713 196.02 110.713 195.551V195.535H108.681C107.891 195.535 107.331 195.673 107.001 195.951C106.681 196.217 106.521 196.553 106.521 196.959C106.521 197.375 106.67 197.711 106.969 197.967C107.278 198.212 107.71 198.335 108.265 198.335ZM117.673 199.471C116.883 199.471 116.19 199.289 115.593 198.927C115.006 198.564 114.547 198.068 114.217 197.439C113.897 196.809 113.737 196.095 113.737 195.295C113.737 194.495 113.902 193.785 114.233 193.167C114.563 192.537 115.022 192.047 115.609 191.695C116.195 191.332 116.889 191.151 117.689 191.151C118.339 191.151 118.915 191.284 119.417 191.551C119.918 191.817 120.307 192.191 120.585 192.671V187.759H121.929V199.279H120.713L120.585 197.967C120.329 198.351 119.961 198.697 119.481 199.007C119.001 199.316 118.398 199.471 117.673 199.471ZM117.817 198.303C118.35 198.303 118.819 198.18 119.225 197.935C119.641 197.679 119.961 197.327 120.185 196.879C120.419 196.431 120.537 195.908 120.537 195.311C120.537 194.713 120.419 194.191 120.185 193.743C119.961 193.295 119.641 192.948 119.225 192.703C118.819 192.447 118.35 192.319 117.817 192.319C117.294 192.319 116.825 192.447 116.409 192.703C116.003 192.948 115.683 193.295 115.449 193.743C115.225 194.191 115.113 194.713 115.113 195.311C115.113 195.908 115.225 196.431 115.449 196.879C115.683 197.327 116.003 197.679 116.409 197.935C116.825 198.18 117.294 198.303 117.817 198.303ZM124.936 189.583C124.669 189.583 124.445 189.497 124.264 189.327C124.093 189.145 124.008 188.921 124.008 188.655C124.008 188.399 124.093 188.185 124.264 188.015C124.445 187.844 124.669 187.759 124.936 187.759C125.192 187.759 125.41 187.844 125.592 188.015C125.773 188.185 125.864 188.399 125.864 188.655C125.864 188.921 125.773 189.145 125.592 189.327C125.41 189.497 125.192 189.583 124.936 189.583ZM124.264 199.279V191.343H125.608V199.279H124.264ZM127.948 202.799V191.343H129.164L129.292 192.655C129.548 192.271 129.91 191.924 130.38 191.615C130.86 191.305 131.468 191.151 132.204 191.151C132.993 191.151 133.681 191.332 134.268 191.695C134.854 192.057 135.308 192.553 135.628 193.183C135.958 193.812 136.124 194.527 136.124 195.327C136.124 196.127 135.958 196.841 135.628 197.471C135.308 198.089 134.849 198.58 134.252 198.943C133.665 199.295 132.977 199.471 132.188 199.471C131.537 199.471 130.956 199.337 130.444 199.071C129.942 198.804 129.558 198.431 129.292 197.951V202.799H127.948ZM132.044 198.303C132.577 198.303 133.046 198.18 133.452 197.935C133.857 197.679 134.177 197.327 134.412 196.879C134.646 196.431 134.764 195.908 134.764 195.311C134.764 194.713 134.646 194.191 134.412 193.743C134.177 193.295 133.857 192.948 133.452 192.703C133.046 192.447 132.577 192.319 132.044 192.319C131.51 192.319 131.041 192.447 130.636 192.703C130.23 192.948 129.91 193.295 129.676 193.743C129.441 194.191 129.324 194.713 129.324 195.311C129.324 195.908 129.441 196.431 129.676 196.879C129.91 197.327 130.23 197.679 130.636 197.935C131.041 198.18 131.51 198.303 132.044 198.303ZM138.811 189.583C138.544 189.583 138.32 189.497 138.139 189.327C137.968 189.145 137.883 188.921 137.883 188.655C137.883 188.399 137.968 188.185 138.139 188.015C138.32 187.844 138.544 187.759 138.811 187.759C139.067 187.759 139.285 187.844 139.467 188.015C139.648 188.185 139.739 188.399 139.739 188.655C139.739 188.921 139.648 189.145 139.467 189.327C139.285 189.497 139.067 189.583 138.811 189.583ZM138.139 199.279V191.343H139.483V199.279H138.139ZM144.863 199.471C143.913 199.471 143.124 199.231 142.495 198.751C141.865 198.271 141.497 197.62 141.391 196.799H142.767C142.852 197.215 143.071 197.577 143.423 197.887C143.785 198.185 144.271 198.335 144.879 198.335C145.444 198.335 145.86 198.217 146.127 197.983C146.393 197.737 146.527 197.449 146.527 197.119C146.527 196.639 146.351 196.319 145.999 196.159C145.657 195.999 145.172 195.855 144.543 195.727C144.116 195.641 143.689 195.519 143.263 195.359C142.836 195.199 142.479 194.975 142.191 194.687C141.903 194.388 141.759 193.999 141.759 193.519C141.759 192.825 142.015 192.26 142.527 191.823C143.049 191.375 143.753 191.151 144.639 191.151C145.481 191.151 146.169 191.364 146.703 191.791C147.247 192.207 147.561 192.804 147.647 193.583H146.319C146.265 193.177 146.089 192.863 145.791 192.639C145.503 192.404 145.113 192.287 144.623 192.287C144.143 192.287 143.769 192.388 143.503 192.591C143.247 192.793 143.119 193.06 143.119 193.391C143.119 193.711 143.284 193.961 143.615 194.143C143.956 194.324 144.415 194.479 144.991 194.607C145.481 194.713 145.945 194.847 146.383 195.007C146.831 195.156 147.193 195.385 147.471 195.695C147.759 195.993 147.903 196.431 147.903 197.007C147.913 197.721 147.641 198.313 147.087 198.783C146.543 199.241 145.801 199.471 144.863 199.471ZM153.471 199.471C152.713 199.471 152.031 199.3 151.423 198.959C150.825 198.607 150.351 198.121 149.999 197.503C149.657 196.873 149.487 196.143 149.487 195.311C149.487 194.479 149.657 193.753 149.999 193.135C150.351 192.505 150.825 192.02 151.423 191.679C152.031 191.327 152.713 191.151 153.471 191.151C154.409 191.151 155.199 191.396 155.839 191.887C156.489 192.377 156.9 193.033 157.071 193.855H155.695C155.588 193.364 155.327 192.985 154.911 192.719C154.495 192.441 154.009 192.303 153.455 192.303C153.007 192.303 152.585 192.415 152.191 192.639C151.796 192.863 151.476 193.199 151.231 193.647C150.985 194.095 150.863 194.649 150.863 195.311C150.863 195.972 150.985 196.527 151.231 196.975C151.476 197.423 151.796 197.764 152.191 197.999C152.585 198.223 153.007 198.335 153.455 198.335C154.009 198.335 154.495 198.201 154.911 197.935C155.327 197.657 155.588 197.268 155.695 196.767H157.071C156.911 197.567 156.505 198.217 155.855 198.719C155.204 199.22 154.409 199.471 153.471 199.471ZM159.764 189.583C159.497 189.583 159.273 189.497 159.092 189.327C158.921 189.145 158.836 188.921 158.836 188.655C158.836 188.399 158.921 188.185 159.092 188.015C159.273 187.844 159.497 187.759 159.764 187.759C160.02 187.759 160.238 187.844 160.42 188.015C160.601 188.185 160.692 188.399 160.692 188.655C160.692 188.921 160.601 189.145 160.42 189.327C160.238 189.497 160.02 189.583 159.764 189.583ZM159.092 199.279V191.343H160.436V199.279H159.092ZM162.776 199.279V191.343H163.992L164.072 192.767C164.328 192.265 164.696 191.871 165.176 191.583C165.656 191.295 166.2 191.151 166.808 191.151C167.747 191.151 168.493 191.439 169.048 192.015C169.613 192.58 169.896 193.455 169.896 194.639V199.279H168.552V194.783C168.552 193.129 167.869 192.303 166.504 192.303C165.821 192.303 165.251 192.553 164.792 193.055C164.344 193.545 164.12 194.249 164.12 195.167V199.279H162.776ZM175.068 196.783C174.62 196.783 174.209 196.724 173.836 196.607L173.036 197.359C173.153 197.444 173.297 197.519 173.468 197.583C173.649 197.636 173.905 197.689 174.236 197.743C174.567 197.785 175.031 197.833 175.628 197.887C176.695 197.961 177.457 198.207 177.916 198.623C178.375 199.039 178.604 199.583 178.604 200.255C178.604 200.713 178.476 201.151 178.22 201.567C177.975 201.983 177.591 202.324 177.068 202.591C176.556 202.857 175.895 202.991 175.084 202.991C174.369 202.991 173.735 202.895 173.18 202.703C172.625 202.521 172.193 202.239 171.884 201.855C171.575 201.481 171.42 201.007 171.42 200.431C171.42 200.132 171.5 199.807 171.66 199.455C171.82 199.113 172.119 198.788 172.556 198.479C172.321 198.383 172.119 198.281 171.948 198.175C171.788 198.057 171.639 197.929 171.5 197.791V197.423L172.86 196.079C172.231 195.545 171.916 194.841 171.916 193.967C171.916 193.444 172.039 192.969 172.284 192.543C172.529 192.116 172.887 191.78 173.356 191.535C173.825 191.279 174.396 191.151 175.068 191.151C175.527 191.151 175.943 191.215 176.316 191.343H179.244V192.351L177.756 192.415C178.065 192.863 178.22 193.38 178.22 193.967C178.22 194.489 178.092 194.964 177.836 195.391C177.591 195.817 177.233 196.159 176.764 196.415C176.305 196.66 175.74 196.783 175.068 196.783ZM175.068 195.679C175.633 195.679 176.081 195.535 176.412 195.247C176.753 194.948 176.924 194.521 176.924 193.967C176.924 193.423 176.753 193.007 176.412 192.719C176.081 192.42 175.633 192.271 175.068 192.271C174.492 192.271 174.033 192.42 173.692 192.719C173.361 193.007 173.196 193.423 173.196 193.967C173.196 194.521 173.361 194.948 173.692 195.247C174.033 195.535 174.492 195.679 175.068 195.679ZM172.732 200.303C172.732 200.836 172.956 201.231 173.404 201.487C173.852 201.753 174.412 201.887 175.084 201.887C175.745 201.887 176.273 201.743 176.668 201.455C177.073 201.167 177.276 200.783 177.276 200.303C177.276 199.961 177.137 199.663 176.86 199.407C176.583 199.161 176.071 199.017 175.324 198.975C174.737 198.932 174.231 198.879 173.804 198.815C173.367 199.049 173.079 199.3 172.94 199.567C172.801 199.844 172.732 200.089 172.732 200.303ZM188.563 199.471C187.805 199.471 187.133 199.3 186.547 198.959C185.96 198.607 185.496 198.121 185.155 197.503C184.824 196.884 184.659 196.153 184.659 195.311C184.659 194.479 184.824 193.753 185.155 193.135C185.485 192.505 185.944 192.02 186.531 191.679C187.128 191.327 187.816 191.151 188.595 191.151C189.363 191.151 190.024 191.327 190.579 191.679C191.144 192.02 191.576 192.473 191.875 193.039C192.173 193.604 192.323 194.212 192.323 194.863C192.323 194.98 192.317 195.097 192.307 195.215C192.307 195.332 192.307 195.465 192.307 195.615H185.987C186.019 196.223 186.157 196.729 186.403 197.135C186.659 197.529 186.973 197.828 187.347 198.031C187.731 198.233 188.136 198.335 188.563 198.335C189.117 198.335 189.581 198.207 189.955 197.951C190.328 197.695 190.6 197.348 190.771 196.911H192.099C191.885 197.647 191.475 198.26 190.867 198.751C190.269 199.231 189.501 199.471 188.563 199.471ZM188.563 192.287C187.923 192.287 187.352 192.484 186.851 192.879C186.36 193.263 186.077 193.828 186.003 194.575H190.995C190.963 193.86 190.717 193.3 190.259 192.895C189.8 192.489 189.235 192.287 188.563 192.287ZM194.104 199.279V187.759H195.448V199.279H194.104ZM198.467 189.583C198.2 189.583 197.976 189.497 197.795 189.327C197.624 189.145 197.539 188.921 197.539 188.655C197.539 188.399 197.624 188.185 197.795 188.015C197.976 187.844 198.2 187.759 198.467 187.759C198.723 187.759 198.942 187.844 199.123 188.015C199.304 188.185 199.395 188.399 199.395 188.655C199.395 188.921 199.304 189.145 199.123 189.327C198.942 189.497 198.723 189.583 198.467 189.583ZM197.795 199.279V191.343H199.139V199.279H197.795ZM204.615 199.279C203.89 199.279 203.319 199.103 202.903 198.751C202.487 198.399 202.279 197.764 202.279 196.847V192.479H200.903V191.343H202.279L202.455 189.439H203.623V191.343H205.959V192.479H203.623V196.847C203.623 197.348 203.724 197.689 203.927 197.871C204.13 198.041 204.487 198.127 204.999 198.127H205.831V199.279H204.615ZM208.131 199.359C207.864 199.359 207.64 199.273 207.459 199.103C207.288 198.921 207.203 198.703 207.203 198.447C207.203 198.191 207.288 197.977 207.459 197.807C207.64 197.625 207.864 197.535 208.131 197.535C208.387 197.535 208.6 197.625 208.771 197.807C208.952 197.977 209.043 198.191 209.043 198.447C209.043 198.703 208.952 198.921 208.771 199.103C208.6 199.273 208.387 199.359 208.131 199.359Z" fill="#006347"/>
<g filter="url(#filter0_d_47_141)">
<rect x="106.156" width="100.569" height="95.8408" rx="15" fill="#006347"/>
</g>
<g clip-path="url(#clip0_47_141)">
<path d="M180.963 44.5H133.037C131.8 44.5 130.703 45.3167 130.703 47.3233C130.722 53.0586 133.005 58.5544 137.056 62.6143C141.107 66.6741 146.598 68.9693 152.333 69H161.667C167.41 68.9815 172.913 66.6918 176.974 62.6307C181.035 58.5695 183.325 53.0667 183.343 47.3233C183.25 45.3633 182.247 44.5 180.963 44.5Z" stroke="white" stroke-width="4" stroke-linecap="round" stroke-linejoin="round"/>
<path d="M131.17 51.5234C136.187 51.1034 135.837 55 140.503 55C145.17 55 144.773 51.5 149.043 51.5C153.313 51.5 153.267 55 157.56 55C161.853 55 161.83 51.5 166.1 51.5C170.37 51.5 170.393 55 174.687 55C178.98 55 178.957 51.7334 182.83 51.5" stroke="white" stroke-width="4" stroke-linecap="round" stroke-linejoin="round"/>
<path d="M138.193 63.6333C143.91 64.4733 143.443 60.25 148.157 60.25C152.427 60.25 152.427 63.75 156.697 63.75C160.967 63.75 160.99 60.25 165.26 60.25C169.53 60.25 169.553 63.75 173.823 63.75C174.625 63.7591 175.42 63.6002 176.157 63.2833" stroke="white" stroke-width="4" stroke-linecap="round" stroke-linejoin="round"/>
<path d="M134.997 44.5C134.39 38.4333 136.91 33.0433 141.437 31.6666C146.967 29.8933 153.407 34.6066 155.833 42.19C156.086 42.9521 156.281 43.732 156.417 44.5233" stroke="white" stroke-width="4" stroke-linecap="round" stroke-linejoin="round"/>
<path d="M159.333 44.5C159.255 42.5223 159.531 40.5466 160.15 38.6667C162.647 31.1067 169.11 26.44 174.64 28.26C180.17 30.08 182.433 37.1967 180.333 44.5" stroke="white" stroke-width="4" stroke-linecap="round" stroke-linejoin="round"/>
</g>
<defs>
<filter id="filter0_d_47_141" x="102.156" y="0" width="108.569" height="103.841" filterUnits="userSpaceOnUse" color-interpolation-filters="sRGB">
<feFlood flood-opacity="0" result="BackgroundImageFix"/>
<feColorMatrix in="SourceAlpha" type="matrix" values="0 0 0 0 0 0 0 0 0 0 0 0 0 0 0 0 0 0 127 0" result="hardAlpha"/>
<feOffset dy="4"/>
<feGaussianBlur stdDeviation="2"/>
<feComposite in2="hardAlpha" operator="out"/>
<feColorMatrix type="matrix" values="0 0 0 0 0 0 0 0 0 0 0 0 0 0 0 0 0 0 0.4 0"/>
<feBlend mode="normal" in2="BackgroundImageFix" result="effect1_dropShadow_47_141"/>
<feBlend mode="normal" in="SourceGraphic" in2="effect1_dropShadow_47_141" result="shape"/>
</filter>
<clipPath id="clip0_47_141">
<rect width="56" height="56" fill="white" transform="translate(129 20)"/>
</clipPath>
</defs>
</svg>
