<svg width="314" height="224" viewBox="0 0 314 224" fill="none" xmlns="http://www.w3.org/2000/svg">
<path d="M15.671 128.318V131.058H9.95102V134.018H14.231V136.678H9.95102V142.358H6.53102V128.318H15.671ZM19.1885 130.038C18.5885 130.038 18.0952 129.865 17.7085 129.518C17.3352 129.158 17.1485 128.718 17.1485 128.198C17.1485 127.665 17.3352 127.225 17.7085 126.878C18.0952 126.518 18.5885 126.338 19.1885 126.338C19.7752 126.338 20.2552 126.518 20.6285 126.878C21.0152 127.225 21.2085 127.665 21.2085 128.198C21.2085 128.718 21.0152 129.158 20.6285 129.518C20.2552 129.865 19.7752 130.038 19.1885 130.038ZM20.8885 131.198V142.358H17.4685V131.198H20.8885ZM30.167 131.078C31.4736 131.078 32.5136 131.505 33.287 132.358C34.0736 133.198 34.467 134.358 34.467 135.838V142.358H31.067V136.298C31.067 135.551 30.8736 134.971 30.487 134.558C30.1003 134.145 29.5803 133.938 28.927 133.938C28.2736 133.938 27.7536 134.145 27.367 134.558C26.9803 134.971 26.787 135.551 26.787 136.298V142.358H23.367V131.198H26.787V132.678C27.1336 132.185 27.6003 131.798 28.187 131.518C28.7736 131.225 29.4336 131.078 30.167 131.078ZM36.1635 136.758C36.1635 135.611 36.3768 134.605 36.8035 133.738C37.2435 132.871 37.8368 132.205 38.5835 131.738C39.3302 131.271 40.1635 131.038 41.0835 131.038C41.8702 131.038 42.5568 131.198 43.1435 131.518C43.7435 131.838 44.2035 132.258 44.5235 132.778V131.198H47.9435V142.358H44.5235V140.778C44.1902 141.298 43.7235 141.718 43.1235 142.038C42.5368 142.358 41.8502 142.518 41.0635 142.518C40.1568 142.518 39.3302 142.285 38.5835 141.818C37.8368 141.338 37.2435 140.665 36.8035 139.798C36.3768 138.918 36.1635 137.905 36.1635 136.758ZM44.5235 136.778C44.5235 135.925 44.2835 135.251 43.8035 134.758C43.3368 134.265 42.7635 134.018 42.0835 134.018C41.4035 134.018 40.8235 134.265 40.3435 134.758C39.8768 135.238 39.6435 135.905 39.6435 136.758C39.6435 137.611 39.8768 138.291 40.3435 138.798C40.8235 139.291 41.4035 139.538 42.0835 139.538C42.7635 139.538 43.3368 139.291 43.8035 138.798C44.2835 138.305 44.5235 137.631 44.5235 136.778ZM57.2177 131.078C58.5244 131.078 59.5644 131.505 60.3377 132.358C61.1244 133.198 61.5177 134.358 61.5177 135.838V142.358H58.1177V136.298C58.1177 135.551 57.9244 134.971 57.5377 134.558C57.1511 134.145 56.6311 133.938 55.9777 133.938C55.3244 133.938 54.8044 134.145 54.4177 134.558C54.0311 134.971 53.8377 135.551 53.8377 136.298V142.358H50.4177V131.198H53.8377V132.678C54.1844 132.185 54.6511 131.798 55.2377 131.518C55.8244 131.225 56.4844 131.078 57.2177 131.078ZM63.2143 136.778C63.2143 135.618 63.4476 134.605 63.9143 133.738C64.3943 132.871 65.0543 132.205 65.8943 131.738C66.7476 131.271 67.721 131.038 68.8143 131.038C70.2143 131.038 71.381 131.405 72.3143 132.138C73.261 132.871 73.881 133.905 74.1743 135.238H70.5343C70.2276 134.385 69.6343 133.958 68.7543 133.958C68.1276 133.958 67.6276 134.205 67.2543 134.698C66.881 135.178 66.6943 135.871 66.6943 136.778C66.6943 137.685 66.881 138.385 67.2543 138.878C67.6276 139.358 68.1276 139.598 68.7543 139.598C69.6343 139.598 70.2276 139.171 70.5343 138.318H74.1743C73.881 139.625 73.261 140.651 72.3143 141.398C71.3676 142.145 70.201 142.518 68.8143 142.518C67.721 142.518 66.7476 142.285 65.8943 141.818C65.0543 141.351 64.3943 140.685 63.9143 139.818C63.4476 138.951 63.2143 137.938 63.2143 136.778ZM77.7237 130.038C77.1237 130.038 76.6303 129.865 76.2437 129.518C75.8703 129.158 75.6837 128.718 75.6837 128.198C75.6837 127.665 75.8703 127.225 76.2437 126.878C76.6303 126.518 77.1237 126.338 77.7237 126.338C78.3103 126.338 78.7903 126.518 79.1637 126.878C79.5503 127.225 79.7437 127.665 79.7437 128.198C79.7437 128.718 79.5503 129.158 79.1637 129.518C78.7903 129.865 78.3103 130.038 77.7237 130.038ZM79.4237 131.198V142.358H76.0037V131.198H79.4237ZM81.2221 136.758C81.2221 135.611 81.4354 134.605 81.8621 133.738C82.3021 132.871 82.8954 132.205 83.6421 131.738C84.3888 131.271 85.2221 131.038 86.1421 131.038C86.9288 131.038 87.6154 131.198 88.2021 131.518C88.8021 131.838 89.2621 132.258 89.5821 132.778V131.198H93.0021V142.358H89.5821V140.778C89.2488 141.298 88.7821 141.718 88.1821 142.038C87.5954 142.358 86.9088 142.518 86.1221 142.518C85.2154 142.518 84.3888 142.285 83.6421 141.818C82.8954 141.338 82.3021 140.665 81.8621 139.798C81.4354 138.918 81.2221 137.905 81.2221 136.758ZM89.5821 136.778C89.5821 135.925 89.3421 135.251 88.8621 134.758C88.3954 134.265 87.8221 134.018 87.1421 134.018C86.4621 134.018 85.8821 134.265 85.4021 134.758C84.9354 135.238 84.7021 135.905 84.7021 136.758C84.7021 137.611 84.9354 138.291 85.4021 138.798C85.8821 139.291 86.4621 139.538 87.1421 139.538C87.8221 139.538 88.3954 139.291 88.8621 138.798C89.3421 138.305 89.5821 137.631 89.5821 136.778ZM98.8963 127.558V142.358H95.4763V127.558H98.8963ZM115.713 128.318V131.058H111.993V142.358H108.573V131.058H104.853V128.318H115.713ZM120.849 133.058C121.249 132.445 121.749 131.965 122.349 131.618C122.949 131.258 123.616 131.078 124.349 131.078V134.698H123.409C122.556 134.698 121.916 134.885 121.489 135.258C121.063 135.618 120.849 136.258 120.849 137.178V142.358H117.429V131.198H120.849V133.058ZM125.304 136.758C125.304 135.611 125.517 134.605 125.944 133.738C126.384 132.871 126.977 132.205 127.724 131.738C128.471 131.271 129.304 131.038 130.224 131.038C131.011 131.038 131.697 131.198 132.284 131.518C132.884 131.838 133.344 132.258 133.664 132.778V131.198H137.084V142.358H133.664V140.778C133.331 141.298 132.864 141.718 132.264 142.038C131.677 142.358 130.991 142.518 130.204 142.518C129.297 142.518 128.471 142.285 127.724 141.818C126.977 141.338 126.384 140.665 125.944 139.798C125.517 138.918 125.304 137.905 125.304 136.758ZM133.664 136.778C133.664 135.925 133.424 135.251 132.944 134.758C132.477 134.265 131.904 134.018 131.224 134.018C130.544 134.018 129.964 134.265 129.484 134.758C129.017 135.238 128.784 135.905 128.784 136.758C128.784 137.611 129.017 138.291 129.484 138.798C129.964 139.291 130.544 139.538 131.224 139.538C131.904 139.538 132.477 139.291 132.944 138.798C133.424 138.305 133.664 137.631 133.664 136.778ZM138.878 136.778C138.878 135.618 139.112 134.605 139.578 133.738C140.058 132.871 140.718 132.205 141.558 131.738C142.412 131.271 143.385 131.038 144.478 131.038C145.878 131.038 147.045 131.405 147.978 132.138C148.925 132.871 149.545 133.905 149.838 135.238H146.198C145.892 134.385 145.298 133.958 144.418 133.958C143.792 133.958 143.292 134.205 142.918 134.698C142.545 135.178 142.358 135.871 142.358 136.778C142.358 137.685 142.545 138.385 142.918 138.878C143.292 139.358 143.792 139.598 144.418 139.598C145.298 139.598 145.892 139.171 146.198 138.318H149.838C149.545 139.625 148.925 140.651 147.978 141.398C147.032 142.145 145.865 142.518 144.478 142.518C143.385 142.518 142.412 142.285 141.558 141.818C140.718 141.351 140.058 140.685 139.578 139.818C139.112 138.951 138.878 137.938 138.878 136.778ZM158.488 142.358L155.088 137.678V142.358H151.668V127.558H155.088V135.738L158.468 131.198H162.688L158.048 136.798L162.728 142.358H158.488ZM165.751 130.038C165.151 130.038 164.658 129.865 164.271 129.518C163.898 129.158 163.711 128.718 163.711 128.198C163.711 127.665 163.898 127.225 164.271 126.878C164.658 126.518 165.151 126.338 165.751 126.338C166.338 126.338 166.818 126.518 167.191 126.878C167.578 127.225 167.771 127.665 167.771 128.198C167.771 128.718 167.578 129.158 167.191 129.518C166.818 129.865 166.338 130.038 165.751 130.038ZM167.451 131.198V142.358H164.031V131.198H167.451ZM176.729 131.078C178.036 131.078 179.076 131.505 179.849 132.358C180.636 133.198 181.029 134.358 181.029 135.838V142.358H177.629V136.298C177.629 135.551 177.436 134.971 177.049 134.558C176.663 134.145 176.143 133.938 175.489 133.938C174.836 133.938 174.316 134.145 173.929 134.558C173.543 134.971 173.349 135.551 173.349 136.298V142.358H169.929V131.198H173.349V132.678C173.696 132.185 174.163 131.798 174.749 131.518C175.336 131.225 175.996 131.078 176.729 131.078ZM187.646 131.038C188.433 131.038 189.119 131.198 189.706 131.518C190.306 131.838 190.766 132.258 191.086 132.778V131.198H194.506V142.338C194.506 143.365 194.299 144.291 193.886 145.118C193.486 145.958 192.866 146.625 192.026 147.118C191.199 147.611 190.166 147.858 188.926 147.858C187.273 147.858 185.933 147.465 184.906 146.678C183.879 145.905 183.293 144.851 183.146 143.518H186.526C186.633 143.945 186.886 144.278 187.286 144.518C187.686 144.771 188.179 144.898 188.766 144.898C189.473 144.898 190.033 144.691 190.446 144.278C190.873 143.878 191.086 143.231 191.086 142.338V140.758C190.753 141.278 190.293 141.705 189.706 142.038C189.119 142.358 188.433 142.518 187.646 142.518C186.726 142.518 185.893 142.285 185.146 141.818C184.399 141.338 183.806 140.665 183.366 139.798C182.939 138.918 182.726 137.905 182.726 136.758C182.726 135.611 182.939 134.605 183.366 133.738C183.806 132.871 184.399 132.205 185.146 131.738C185.893 131.271 186.726 131.038 187.646 131.038ZM191.086 136.778C191.086 135.925 190.846 135.251 190.366 134.758C189.899 134.265 189.326 134.018 188.646 134.018C187.966 134.018 187.386 134.265 186.906 134.758C186.439 135.238 186.206 135.905 186.206 136.758C186.206 137.611 186.439 138.291 186.906 138.798C187.386 139.291 187.966 139.538 188.646 139.538C189.326 139.538 189.899 139.291 190.366 138.798C190.846 138.305 191.086 137.631 191.086 136.778ZM211.959 142.358L210.659 141.098C209.365 142.085 207.819 142.578 206.019 142.578C204.939 142.578 203.999 142.405 203.199 142.058C202.399 141.698 201.779 141.198 201.339 140.558C200.912 139.905 200.699 139.145 200.699 138.278C200.699 137.398 200.932 136.605 201.399 135.898C201.879 135.178 202.592 134.591 203.539 134.138C203.192 133.711 202.945 133.305 202.799 132.918C202.652 132.518 202.579 132.085 202.579 131.618C202.579 130.951 202.752 130.345 203.099 129.798C203.445 129.251 203.945 128.825 204.599 128.518C205.265 128.198 206.052 128.038 206.959 128.038C207.879 128.038 208.659 128.205 209.299 128.538C209.939 128.871 210.419 129.318 210.739 129.878C211.059 130.438 211.205 131.051 211.179 131.718H207.959C207.972 131.358 207.879 131.085 207.679 130.898C207.492 130.698 207.239 130.598 206.919 130.598C206.599 130.598 206.332 130.691 206.119 130.878C205.905 131.065 205.799 131.305 205.799 131.598C205.799 131.878 205.885 132.171 206.059 132.478C206.245 132.785 206.532 133.138 206.919 133.538L210.339 136.878C210.365 136.811 210.399 136.731 210.439 136.638C210.492 136.545 210.545 136.438 210.599 136.318L211.339 135.058H214.759L213.799 136.798C213.439 137.585 213.025 138.331 212.559 139.038L215.939 142.358H211.959ZM206.179 139.818C207.072 139.818 207.865 139.565 208.559 139.058L205.439 136.038C204.479 136.531 203.999 137.198 203.999 138.038C203.999 138.545 204.192 138.971 204.579 139.318C204.979 139.651 205.512 139.818 206.179 139.818ZM230.154 139.878H224.914L224.074 142.358H220.494L225.574 128.318H229.534L234.614 142.358H230.994L230.154 139.878ZM229.274 137.238L227.534 132.098L225.814 137.238H229.274ZM242.96 131.078C244.267 131.078 245.307 131.505 246.08 132.358C246.867 133.198 247.26 134.358 247.26 135.838V142.358H243.86V136.298C243.86 135.551 243.667 134.971 243.28 134.558C242.893 134.145 242.373 133.938 241.72 133.938C241.067 133.938 240.547 134.145 240.16 134.558C239.773 134.971 239.58 135.551 239.58 136.298V142.358H236.16V131.198H239.58V132.678C239.927 132.185 240.393 131.798 240.98 131.518C241.567 131.225 242.227 131.078 242.96 131.078ZM248.956 136.758C248.956 135.611 249.17 134.605 249.596 133.738C250.036 132.871 250.63 132.205 251.376 131.738C252.123 131.271 252.956 131.038 253.876 131.038C254.663 131.038 255.35 131.198 255.936 131.518C256.536 131.838 256.996 132.258 257.316 132.778V131.198H260.736V142.358H257.316V140.778C256.983 141.298 256.516 141.718 255.916 142.038C255.33 142.358 254.643 142.518 253.856 142.518C252.95 142.518 252.123 142.285 251.376 141.818C250.63 141.338 250.036 140.665 249.596 139.798C249.17 138.918 248.956 137.905 248.956 136.758ZM257.316 136.778C257.316 135.925 257.076 135.251 256.596 134.758C256.13 134.265 255.556 134.018 254.876 134.018C254.196 134.018 253.616 134.265 253.136 134.758C252.67 135.238 252.436 135.905 252.436 136.758C252.436 137.611 252.67 138.291 253.136 138.798C253.616 139.291 254.196 139.538 254.876 139.538C255.556 139.538 256.13 139.291 256.596 138.798C257.076 138.305 257.316 137.631 257.316 136.778ZM266.631 127.558V142.358H263.211V127.558H266.631ZM280.509 131.198L273.509 147.658H269.829L272.389 141.978L267.849 131.198H271.669L274.249 138.178L276.809 131.198H280.509ZM286.286 142.518C285.313 142.518 284.446 142.351 283.686 142.018C282.926 141.685 282.326 141.231 281.886 140.658C281.446 140.071 281.199 139.418 281.146 138.698H284.526C284.566 139.085 284.746 139.398 285.066 139.638C285.386 139.878 285.779 139.998 286.246 139.998C286.673 139.998 286.999 139.918 287.226 139.758C287.466 139.585 287.586 139.365 287.586 139.098C287.586 138.778 287.419 138.545 287.086 138.398C286.753 138.238 286.213 138.065 285.466 137.878C284.666 137.691 283.999 137.498 283.466 137.298C282.933 137.085 282.473 136.758 282.086 136.318C281.699 135.865 281.506 135.258 281.506 134.498C281.506 133.858 281.679 133.278 282.026 132.758C282.386 132.225 282.906 131.805 283.586 131.498C284.279 131.191 285.099 131.038 286.046 131.038C287.446 131.038 288.546 131.385 289.346 132.078C290.159 132.771 290.626 133.691 290.746 134.838H287.586C287.533 134.451 287.359 134.145 287.066 133.918C286.786 133.691 286.413 133.578 285.946 133.578C285.546 133.578 285.239 133.658 285.026 133.818C284.813 133.965 284.706 134.171 284.706 134.438C284.706 134.758 284.873 134.998 285.206 135.158C285.553 135.318 286.086 135.478 286.806 135.638C287.633 135.851 288.306 136.065 288.826 136.278C289.346 136.478 289.799 136.811 290.186 137.278C290.586 137.731 290.793 138.345 290.806 139.118C290.806 139.771 290.619 140.358 290.246 140.878C289.886 141.385 289.359 141.785 288.666 142.078C287.986 142.371 287.193 142.518 286.286 142.518ZM294.618 130.038C294.018 130.038 293.525 129.865 293.138 129.518C292.765 129.158 292.578 128.718 292.578 128.198C292.578 127.665 292.765 127.225 293.138 126.878C293.525 126.518 294.018 126.338 294.618 126.338C295.205 126.338 295.685 126.518 296.058 126.878C296.445 127.225 296.638 127.665 296.638 128.198C296.638 128.718 296.445 129.158 296.058 129.518C295.685 129.865 295.205 130.038 294.618 130.038ZM296.318 131.198V142.358H292.898V131.198H296.318ZM303.337 142.518C302.363 142.518 301.497 142.351 300.737 142.018C299.977 141.685 299.377 141.231 298.937 140.658C298.497 140.071 298.25 139.418 298.197 138.698H301.577C301.617 139.085 301.797 139.398 302.117 139.638C302.437 139.878 302.83 139.998 303.297 139.998C303.723 139.998 304.05 139.918 304.277 139.758C304.517 139.585 304.637 139.365 304.637 139.098C304.637 138.778 304.47 138.545 304.137 138.398C303.803 138.238 303.263 138.065 302.517 137.878C301.717 137.691 301.05 137.498 300.517 137.298C299.983 137.085 299.523 136.758 299.137 136.318C298.75 135.865 298.557 135.258 298.557 134.498C298.557 133.858 298.73 133.278 299.077 132.758C299.437 132.225 299.957 131.805 300.637 131.498C301.33 131.191 302.15 131.038 303.097 131.038C304.497 131.038 305.597 131.385 306.397 132.078C307.21 132.771 307.677 133.691 307.797 134.838H304.637C304.583 134.451 304.41 134.145 304.117 133.918C303.837 133.691 303.463 133.578 302.997 133.578C302.597 133.578 302.29 133.658 302.077 133.818C301.863 133.965 301.757 134.171 301.757 134.438C301.757 134.758 301.923 134.998 302.257 135.158C302.603 135.318 303.137 135.478 303.857 135.638C304.683 135.851 305.357 136.065 305.877 136.278C306.397 136.478 306.85 136.811 307.237 137.278C307.637 137.731 307.843 138.345 307.857 139.118C307.857 139.771 307.67 140.358 307.297 140.878C306.937 141.385 306.41 141.785 305.717 142.078C305.037 142.371 304.243 142.518 303.337 142.518Z" fill="#006347"/>
<path d="M5.06681 175V163.8H6.63481L10.6668 171.608L14.6668 163.8H16.2508V175H14.9068V166.2L11.1628 173.4H10.1548L6.41081 166.216V175H5.06681ZM22.1497 175.192C21.403 175.192 20.731 175.021 20.1337 174.68C19.5364 174.339 19.0617 173.859 18.7097 173.24C18.3684 172.611 18.1977 171.875 18.1977 171.032C18.1977 170.189 18.3737 169.459 18.7257 168.84C19.0777 168.211 19.5524 167.725 20.1497 167.384C20.7577 167.043 21.435 166.872 22.1817 166.872C22.9284 166.872 23.6004 167.043 24.1977 167.384C24.795 167.725 25.2644 168.211 25.6057 168.84C25.9577 169.459 26.1337 170.189 26.1337 171.032C26.1337 171.875 25.9577 172.611 25.6057 173.24C25.2537 173.859 24.7737 174.339 24.1657 174.68C23.5684 175.021 22.8964 175.192 22.1497 175.192ZM22.1497 174.04C22.6084 174.04 23.035 173.928 23.4297 173.704C23.8244 173.48 24.1444 173.144 24.3897 172.696C24.635 172.248 24.7577 171.693 24.7577 171.032C24.7577 170.371 24.635 169.816 24.3897 169.368C24.155 168.92 23.8404 168.584 23.4457 168.36C23.051 168.136 22.6297 168.024 22.1817 168.024C21.723 168.024 21.2964 168.136 20.9017 168.36C20.507 168.584 20.187 168.92 19.9417 169.368C19.6964 169.816 19.5737 170.371 19.5737 171.032C19.5737 171.693 19.6964 172.248 19.9417 172.696C20.187 173.144 20.5017 173.48 20.8857 173.704C21.2804 173.928 21.7017 174.04 22.1497 174.04ZM28.0024 175V167.064H29.2184L29.3304 168.584C29.5758 168.061 29.9491 167.645 30.4504 167.336C30.9518 167.027 31.5704 166.872 32.3064 166.872V168.28H31.9384C31.4691 168.28 31.0371 168.365 30.6424 168.536C30.2478 168.696 29.9331 168.973 29.6984 169.368C29.4638 169.763 29.3464 170.307 29.3464 171V175H28.0024ZM37.0861 175.192C36.3287 175.192 35.6567 175.021 35.0701 174.68C34.4834 174.328 34.0194 173.843 33.6781 173.224C33.3474 172.605 33.1821 171.875 33.1821 171.032C33.1821 170.2 33.3474 169.475 33.6781 168.856C34.0087 168.227 34.4674 167.741 35.0541 167.4C35.6514 167.048 36.3394 166.872 37.1181 166.872C37.8861 166.872 38.5474 167.048 39.1021 167.4C39.6674 167.741 40.0994 168.195 40.3981 168.76C40.6967 169.325 40.8461 169.933 40.8461 170.584C40.8461 170.701 40.8407 170.819 40.8301 170.936C40.8301 171.053 40.8301 171.187 40.8301 171.336H34.5101C34.5421 171.944 34.6807 172.451 34.9261 172.856C35.1821 173.251 35.4967 173.549 35.8701 173.752C36.2541 173.955 36.6594 174.056 37.0861 174.056C37.6407 174.056 38.1047 173.928 38.4781 173.672C38.8514 173.416 39.1234 173.069 39.2941 172.632H40.6221C40.4087 173.368 39.9981 173.981 39.3901 174.472C38.7927 174.952 38.0247 175.192 37.0861 175.192ZM37.0861 168.008C36.4461 168.008 35.8754 168.205 35.3741 168.6C34.8834 168.984 34.6007 169.549 34.5261 170.296H39.5181C39.4861 169.581 39.2407 169.021 38.7821 168.616C38.3234 168.211 37.7581 168.008 37.0861 168.008ZM42.6274 175V167.064H43.8434L43.9394 168.216C44.1954 167.789 44.5368 167.459 44.9634 167.224C45.3901 166.989 45.8701 166.872 46.4034 166.872C47.0328 166.872 47.5714 167 48.0194 167.256C48.4781 167.512 48.8301 167.901 49.0754 168.424C49.3528 167.944 49.7314 167.565 50.2114 167.288C50.7021 167.011 51.2301 166.872 51.7954 166.872C52.7448 166.872 53.5021 167.16 54.0674 167.736C54.6328 168.301 54.9154 169.176 54.9154 170.36V175H53.5874V170.504C53.5874 169.683 53.4221 169.064 53.0914 168.648C52.7608 168.232 52.2861 168.024 51.6674 168.024C51.0274 168.024 50.4941 168.275 50.0674 168.776C49.6514 169.267 49.4434 169.971 49.4434 170.888V175H48.0994V170.504C48.0994 169.683 47.9341 169.064 47.6034 168.648C47.2728 168.232 46.7981 168.024 46.1794 168.024C45.5501 168.024 45.0221 168.275 44.5954 168.776C44.1794 169.267 43.9714 169.971 43.9714 170.888V175H42.6274ZM61.9903 165.304C61.7236 165.304 61.4996 165.219 61.3183 165.048C61.1476 164.867 61.0623 164.643 61.0623 164.376C61.0623 164.12 61.1476 163.907 61.3183 163.736C61.4996 163.565 61.7236 163.48 61.9903 163.48C62.2463 163.48 62.465 163.565 62.6463 163.736C62.8276 163.907 62.9183 164.12 62.9183 164.376C62.9183 164.643 62.8276 164.867 62.6463 165.048C62.465 165.219 62.2463 165.304 61.9903 165.304ZM61.3183 175V167.064H62.6623V175H61.3183ZM65.0024 178.52V167.064H66.2184L66.3464 168.376C66.6024 167.992 66.9651 167.645 67.4344 167.336C67.9144 167.027 68.5224 166.872 69.2584 166.872C70.0478 166.872 70.7358 167.053 71.3224 167.416C71.9091 167.779 72.3624 168.275 72.6824 168.904C73.0131 169.533 73.1784 170.248 73.1784 171.048C73.1784 171.848 73.0131 172.563 72.6824 173.192C72.3624 173.811 71.9038 174.301 71.3064 174.664C70.7198 175.016 70.0318 175.192 69.2424 175.192C68.5918 175.192 68.0104 175.059 67.4984 174.792C66.9971 174.525 66.6131 174.152 66.3464 173.672V178.52H65.0024ZM69.0984 174.024C69.6318 174.024 70.1011 173.901 70.5064 173.656C70.9118 173.4 71.2318 173.048 71.4664 172.6C71.7011 172.152 71.8184 171.629 71.8184 171.032C71.8184 170.435 71.7011 169.912 71.4664 169.464C71.2318 169.016 70.9118 168.669 70.5064 168.424C70.1011 168.168 69.6318 168.04 69.0984 168.04C68.5651 168.04 68.0958 168.168 67.6904 168.424C67.2851 168.669 66.9651 169.016 66.7304 169.464C66.4958 169.912 66.3784 170.435 66.3784 171.032C66.3784 171.629 66.4958 172.152 66.7304 172.6C66.9651 173.048 67.2851 173.4 67.6904 173.656C68.0958 173.901 68.5651 174.024 69.0984 174.024ZM78.0893 175.192C77.14 175.192 76.3506 174.952 75.7213 174.472C75.092 173.992 74.724 173.341 74.6173 172.52H75.9933C76.0786 172.936 76.2973 173.299 76.6493 173.608C77.012 173.907 77.4973 174.056 78.1053 174.056C78.6706 174.056 79.0866 173.939 79.3533 173.704C79.62 173.459 79.7533 173.171 79.7533 172.84C79.7533 172.36 79.5773 172.04 79.2253 171.88C78.884 171.72 78.3986 171.576 77.7693 171.448C77.3426 171.363 76.916 171.24 76.4893 171.08C76.0626 170.92 75.7053 170.696 75.4173 170.408C75.1293 170.109 74.9853 169.72 74.9853 169.24C74.9853 168.547 75.2413 167.981 75.7533 167.544C76.276 167.096 76.98 166.872 77.8653 166.872C78.708 166.872 79.396 167.085 79.9293 167.512C80.4733 167.928 80.788 168.525 80.8733 169.304H79.5453C79.492 168.899 79.316 168.584 79.0173 168.36C78.7293 168.125 78.34 168.008 77.8493 168.008C77.3693 168.008 76.996 168.109 76.7293 168.312C76.4733 168.515 76.3453 168.781 76.3453 169.112C76.3453 169.432 76.5106 169.683 76.8413 169.864C77.1826 170.045 77.6413 170.2 78.2173 170.328C78.708 170.435 79.172 170.568 79.6093 170.728C80.0573 170.877 80.42 171.107 80.6973 171.416C80.9853 171.715 81.1293 172.152 81.1293 172.728C81.14 173.443 80.868 174.035 80.3133 174.504C79.7693 174.963 79.028 175.192 78.0893 175.192ZM85.9453 175.192C85.0066 175.192 84.26 174.909 83.7053 174.344C83.1506 173.768 82.8733 172.888 82.8733 171.704V167.064H84.2173V171.56C84.2173 173.213 84.8946 174.04 86.2493 174.04C86.9426 174.04 87.5133 173.795 87.9613 173.304C88.42 172.803 88.6493 172.093 88.6493 171.176V167.064H89.9933V175H88.7773L88.6813 173.576C88.436 174.077 88.068 174.472 87.5773 174.76C87.0973 175.048 86.5533 175.192 85.9453 175.192ZM92.2056 175V167.064H93.4216L93.5176 168.216C93.7736 167.789 94.1149 167.459 94.5416 167.224C94.9682 166.989 95.4482 166.872 95.9816 166.872C96.6109 166.872 97.1496 167 97.5976 167.256C98.0562 167.512 98.4082 167.901 98.6536 168.424C98.9309 167.944 99.3096 167.565 99.7896 167.288C100.28 167.011 100.808 166.872 101.374 166.872C102.323 166.872 103.08 167.16 103.646 167.736C104.211 168.301 104.494 169.176 104.494 170.36V175H103.166V170.504C103.166 169.683 103 169.064 102.67 168.648C102.339 168.232 101.864 168.024 101.246 168.024C100.606 168.024 100.072 168.275 99.6456 168.776C99.2296 169.267 99.0216 169.971 99.0216 170.888V175H97.6776V170.504C97.6776 169.683 97.5122 169.064 97.1816 168.648C96.8509 168.232 96.3762 168.024 95.7576 168.024C95.1282 168.024 94.6002 168.275 94.1736 168.776C93.7576 169.267 93.5496 169.971 93.5496 170.888V175H92.2056ZM114.352 175.192C113.563 175.192 112.87 175.011 112.272 174.648C111.686 174.285 111.227 173.789 110.896 173.16C110.576 172.531 110.416 171.816 110.416 171.016C110.416 170.216 110.582 169.507 110.912 168.888C111.243 168.259 111.702 167.768 112.288 167.416C112.875 167.053 113.568 166.872 114.368 166.872C115.019 166.872 115.595 167.005 116.096 167.272C116.598 167.539 116.987 167.912 117.264 168.392V163.48H118.608V175H117.392L117.264 173.688C117.008 174.072 116.64 174.419 116.16 174.728C115.68 175.037 115.078 175.192 114.352 175.192ZM114.496 174.024C115.03 174.024 115.499 173.901 115.904 173.656C116.32 173.4 116.64 173.048 116.864 172.6C117.099 172.152 117.216 171.629 117.216 171.032C117.216 170.435 117.099 169.912 116.864 169.464C116.64 169.016 116.32 168.669 115.904 168.424C115.499 168.168 115.03 168.04 114.496 168.04C113.974 168.04 113.504 168.168 113.088 168.424C112.683 168.669 112.363 169.016 112.128 169.464C111.904 169.912 111.792 170.435 111.792 171.032C111.792 171.629 111.904 172.152 112.128 172.6C112.363 173.048 112.683 173.4 113.088 173.656C113.504 173.901 113.974 174.024 114.496 174.024ZM124.415 175.192C123.669 175.192 122.997 175.021 122.399 174.68C121.802 174.339 121.327 173.859 120.975 173.24C120.634 172.611 120.463 171.875 120.463 171.032C120.463 170.189 120.639 169.459 120.991 168.84C121.343 168.211 121.818 167.725 122.415 167.384C123.023 167.043 123.701 166.872 124.447 166.872C125.194 166.872 125.866 167.043 126.463 167.384C127.061 167.725 127.53 168.211 127.871 168.84C128.223 169.459 128.399 170.189 128.399 171.032C128.399 171.875 128.223 172.611 127.871 173.24C127.519 173.859 127.039 174.339 126.431 174.68C125.834 175.021 125.162 175.192 124.415 175.192ZM124.415 174.04C124.874 174.04 125.301 173.928 125.695 173.704C126.09 173.48 126.41 173.144 126.655 172.696C126.901 172.248 127.023 171.693 127.023 171.032C127.023 170.371 126.901 169.816 126.655 169.368C126.421 168.92 126.106 168.584 125.711 168.36C125.317 168.136 124.895 168.024 124.447 168.024C123.989 168.024 123.562 168.136 123.167 168.36C122.773 168.584 122.453 168.92 122.207 169.368C121.962 169.816 121.839 170.371 121.839 171.032C121.839 171.693 121.962 172.248 122.207 172.696C122.453 173.144 122.767 173.48 123.151 173.704C123.546 173.928 123.967 174.04 124.415 174.04ZM130.268 175V163.48H131.612V175H130.268ZM137.431 175.192C136.684 175.192 136.012 175.021 135.415 174.68C134.818 174.339 134.343 173.859 133.991 173.24C133.65 172.611 133.479 171.875 133.479 171.032C133.479 170.189 133.655 169.459 134.007 168.84C134.359 168.211 134.834 167.725 135.431 167.384C136.039 167.043 136.716 166.872 137.463 166.872C138.21 166.872 138.882 167.043 139.479 167.384C140.076 167.725 140.546 168.211 140.887 168.84C141.239 169.459 141.415 170.189 141.415 171.032C141.415 171.875 141.239 172.611 140.887 173.24C140.535 173.859 140.055 174.339 139.447 174.68C138.85 175.021 138.178 175.192 137.431 175.192ZM137.431 174.04C137.89 174.04 138.316 173.928 138.711 173.704C139.106 173.48 139.426 173.144 139.671 172.696C139.916 172.248 140.039 171.693 140.039 171.032C140.039 170.371 139.916 169.816 139.671 169.368C139.436 168.92 139.122 168.584 138.727 168.36C138.332 168.136 137.911 168.024 137.463 168.024C137.004 168.024 136.578 168.136 136.183 168.36C135.788 168.584 135.468 168.92 135.223 169.368C134.978 169.816 134.855 170.371 134.855 171.032C134.855 171.693 134.978 172.248 135.223 172.696C135.468 173.144 135.783 173.48 136.167 173.704C136.562 173.928 136.983 174.04 137.431 174.04ZM143.284 175V167.064H144.5L144.612 168.584C144.857 168.061 145.23 167.645 145.732 167.336C146.233 167.027 146.852 166.872 147.588 166.872V168.28H147.22C146.75 168.28 146.318 168.365 145.924 168.536C145.529 168.696 145.214 168.973 144.98 169.368C144.745 169.763 144.628 170.307 144.628 171V175H143.284ZM156.371 175.192C155.421 175.192 154.632 174.952 154.003 174.472C153.373 173.992 153.005 173.341 152.899 172.52H154.275C154.36 172.936 154.579 173.299 154.931 173.608C155.293 173.907 155.779 174.056 156.387 174.056C156.952 174.056 157.368 173.939 157.635 173.704C157.901 173.459 158.035 173.171 158.035 172.84C158.035 172.36 157.859 172.04 157.507 171.88C157.165 171.72 156.68 171.576 156.051 171.448C155.624 171.363 155.197 171.24 154.771 171.08C154.344 170.92 153.987 170.696 153.699 170.408C153.411 170.109 153.267 169.72 153.267 169.24C153.267 168.547 153.523 167.981 154.035 167.544C154.557 167.096 155.261 166.872 156.147 166.872C156.989 166.872 157.677 167.085 158.211 167.512C158.755 167.928 159.069 168.525 159.155 169.304H157.827C157.773 168.899 157.597 168.584 157.299 168.36C157.011 168.125 156.621 168.008 156.131 168.008C155.651 168.008 155.277 168.109 155.011 168.312C154.755 168.515 154.627 168.781 154.627 169.112C154.627 169.432 154.792 169.683 155.123 169.864C155.464 170.045 155.923 170.2 156.499 170.328C156.989 170.435 157.453 170.568 157.891 170.728C158.339 170.877 158.701 171.107 158.979 171.416C159.267 171.715 159.411 172.152 159.411 172.728C159.421 173.443 159.149 174.035 158.595 174.504C158.051 174.963 157.309 175.192 156.371 175.192ZM162.147 165.304C161.88 165.304 161.656 165.219 161.475 165.048C161.304 164.867 161.219 164.643 161.219 164.376C161.219 164.12 161.304 163.907 161.475 163.736C161.656 163.565 161.88 163.48 162.147 163.48C162.403 163.48 162.621 163.565 162.803 163.736C162.984 163.907 163.075 164.12 163.075 164.376C163.075 164.643 162.984 164.867 162.803 165.048C162.621 165.219 162.403 165.304 162.147 165.304ZM161.475 175V167.064H162.819V175H161.475ZM168.295 175C167.569 175 166.999 174.824 166.583 174.472C166.167 174.12 165.959 173.485 165.959 172.568V168.2H164.583V167.064H165.959L166.135 165.16H167.303V167.064H169.639V168.2H167.303V172.568C167.303 173.069 167.404 173.411 167.607 173.592C167.809 173.763 168.167 173.848 168.679 173.848H169.511V175H168.295ZM178.221 175.192C177.559 175.192 177.01 175.08 176.573 174.856C176.135 174.632 175.81 174.333 175.597 173.96C175.383 173.587 175.277 173.181 175.277 172.744C175.277 171.933 175.586 171.309 176.205 170.872C176.823 170.435 177.666 170.216 178.733 170.216H180.877V170.12C180.877 169.427 180.695 168.904 180.333 168.552C179.97 168.189 179.485 168.008 178.877 168.008C178.354 168.008 177.901 168.141 177.517 168.408C177.143 168.664 176.909 169.043 176.813 169.544H175.437C175.49 168.968 175.682 168.483 176.013 168.088C176.354 167.693 176.775 167.395 177.277 167.192C177.778 166.979 178.311 166.872 178.877 166.872C179.986 166.872 180.818 167.171 181.373 167.768C181.938 168.355 182.221 169.139 182.221 170.12V175H181.021L180.941 173.576C180.717 174.024 180.386 174.408 179.949 174.728C179.522 175.037 178.946 175.192 178.221 175.192ZM178.429 174.056C178.941 174.056 179.378 173.923 179.741 173.656C180.114 173.389 180.397 173.043 180.589 172.616C180.781 172.189 180.877 171.741 180.877 171.272V171.256H178.845C178.055 171.256 177.495 171.395 177.165 171.672C176.845 171.939 176.685 172.275 176.685 172.68C176.685 173.096 176.834 173.432 177.133 173.688C177.442 173.933 177.874 174.056 178.429 174.056ZM184.237 175V167.064H185.453L185.549 168.216C185.805 167.789 186.146 167.459 186.573 167.224C186.999 166.989 187.479 166.872 188.013 166.872C188.642 166.872 189.181 167 189.629 167.256C190.087 167.512 190.439 167.901 190.685 168.424C190.962 167.944 191.341 167.565 191.821 167.288C192.311 167.011 192.839 166.872 193.405 166.872C194.354 166.872 195.111 167.16 195.677 167.736C196.242 168.301 196.525 169.176 196.525 170.36V175H195.197V170.504C195.197 169.683 195.031 169.064 194.701 168.648C194.37 168.232 193.895 168.024 193.277 168.024C192.637 168.024 192.103 168.275 191.677 168.776C191.261 169.267 191.053 169.971 191.053 170.888V175H189.709V170.504C189.709 169.683 189.543 169.064 189.213 168.648C188.882 168.232 188.407 168.024 187.789 168.024C187.159 168.024 186.631 168.275 186.205 168.776C185.789 169.267 185.581 169.971 185.581 170.888V175H184.237ZM202.117 175.192C201.36 175.192 200.688 175.021 200.101 174.68C199.515 174.328 199.051 173.843 198.709 173.224C198.379 172.605 198.213 171.875 198.213 171.032C198.213 170.2 198.379 169.475 198.709 168.856C199.04 168.227 199.499 167.741 200.085 167.4C200.683 167.048 201.371 166.872 202.149 166.872C202.917 166.872 203.579 167.048 204.133 167.4C204.699 167.741 205.131 168.195 205.429 168.76C205.728 169.325 205.877 169.933 205.877 170.584C205.877 170.701 205.872 170.819 205.861 170.936C205.861 171.053 205.861 171.187 205.861 171.336H199.541C199.573 171.944 199.712 172.451 199.957 172.856C200.213 173.251 200.528 173.549 200.901 173.752C201.285 173.955 201.691 174.056 202.117 174.056C202.672 174.056 203.136 173.928 203.509 173.672C203.883 173.416 204.155 173.069 204.325 172.632H205.653C205.44 173.368 205.029 173.981 204.421 174.472C203.824 174.952 203.056 175.192 202.117 175.192ZM202.117 168.008C201.477 168.008 200.907 168.205 200.405 168.6C199.915 168.984 199.632 169.549 199.557 170.296H204.549C204.517 169.581 204.272 169.021 203.813 168.616C203.355 168.211 202.789 168.008 202.117 168.008ZM210.529 175C209.804 175 209.233 174.824 208.817 174.472C208.401 174.12 208.193 173.485 208.193 172.568V168.2H206.817V167.064H208.193L208.369 165.16H209.537V167.064H211.873V168.2H209.537V172.568C209.537 173.069 209.638 173.411 209.841 173.592C210.044 173.763 210.401 173.848 210.913 173.848H211.745V175H210.529ZM213.337 176.904L214.265 173.368H215.657L214.265 176.904H213.337ZM225.135 175.192C224.377 175.192 223.695 175.021 223.087 174.68C222.489 174.328 222.015 173.843 221.663 173.224C221.321 172.595 221.151 171.864 221.151 171.032C221.151 170.2 221.321 169.475 221.663 168.856C222.015 168.227 222.489 167.741 223.087 167.4C223.695 167.048 224.377 166.872 225.135 166.872C226.073 166.872 226.863 167.117 227.503 167.608C228.153 168.099 228.564 168.755 228.735 169.576H227.359C227.252 169.085 226.991 168.707 226.575 168.44C226.159 168.163 225.673 168.024 225.119 168.024C224.671 168.024 224.249 168.136 223.855 168.36C223.46 168.584 223.14 168.92 222.895 169.368C222.649 169.816 222.527 170.371 222.527 171.032C222.527 171.693 222.649 172.248 222.895 172.696C223.14 173.144 223.46 173.485 223.855 173.72C224.249 173.944 224.671 174.056 225.119 174.056C225.673 174.056 226.159 173.923 226.575 173.656C226.991 173.379 227.252 172.989 227.359 172.488H228.735C228.575 173.288 228.169 173.939 227.519 174.44C226.868 174.941 226.073 175.192 225.135 175.192ZM234.228 175.192C233.481 175.192 232.809 175.021 232.212 174.68C231.614 174.339 231.14 173.859 230.788 173.24C230.446 172.611 230.276 171.875 230.276 171.032C230.276 170.189 230.452 169.459 230.804 168.84C231.156 168.211 231.63 167.725 232.228 167.384C232.836 167.043 233.513 166.872 234.26 166.872C235.006 166.872 235.678 167.043 236.276 167.384C236.873 167.725 237.342 168.211 237.684 168.84C238.036 169.459 238.212 170.189 238.212 171.032C238.212 171.875 238.036 172.611 237.684 173.24C237.332 173.859 236.852 174.339 236.244 174.68C235.646 175.021 234.974 175.192 234.228 175.192ZM234.228 174.04C234.686 174.04 235.113 173.928 235.508 173.704C235.902 173.48 236.222 173.144 236.468 172.696C236.713 172.248 236.836 171.693 236.836 171.032C236.836 170.371 236.713 169.816 236.468 169.368C236.233 168.92 235.918 168.584 235.524 168.36C235.129 168.136 234.708 168.024 234.26 168.024C233.801 168.024 233.374 168.136 232.98 168.36C232.585 168.584 232.265 168.92 232.02 169.368C231.774 169.816 231.652 170.371 231.652 171.032C231.652 171.693 231.774 172.248 232.02 172.696C232.265 173.144 232.58 173.48 232.964 173.704C233.358 173.928 233.78 174.04 234.228 174.04ZM240.081 175V167.064H241.297L241.377 168.488C241.633 167.987 242.001 167.592 242.481 167.304C242.961 167.016 243.505 166.872 244.113 166.872C245.051 166.872 245.798 167.16 246.353 167.736C246.918 168.301 247.201 169.176 247.201 170.36V175H245.857V170.504C245.857 168.851 245.174 168.024 243.809 168.024C243.126 168.024 242.555 168.275 242.097 168.776C241.649 169.267 241.425 169.971 241.425 170.888V175H240.081ZM252.277 175.192C251.327 175.192 250.538 174.952 249.909 174.472C249.279 173.992 248.911 173.341 248.805 172.52H250.181C250.266 172.936 250.485 173.299 250.837 173.608C251.199 173.907 251.685 174.056 252.293 174.056C252.858 174.056 253.274 173.939 253.541 173.704C253.807 173.459 253.941 173.171 253.941 172.84C253.941 172.36 253.765 172.04 253.413 171.88C253.071 171.72 252.586 171.576 251.957 171.448C251.53 171.363 251.103 171.24 250.677 171.08C250.25 170.92 249.893 170.696 249.605 170.408C249.317 170.109 249.173 169.72 249.173 169.24C249.173 168.547 249.429 167.981 249.941 167.544C250.463 167.096 251.167 166.872 252.053 166.872C252.895 166.872 253.583 167.085 254.117 167.512C254.661 167.928 254.975 168.525 255.061 169.304H253.733C253.679 168.899 253.503 168.584 253.205 168.36C252.917 168.125 252.527 168.008 252.037 168.008C251.557 168.008 251.183 168.109 250.917 168.312C250.661 168.515 250.533 168.781 250.533 169.112C250.533 169.432 250.698 169.683 251.029 169.864C251.37 170.045 251.829 170.2 252.405 170.328C252.895 170.435 253.359 170.568 253.797 170.728C254.245 170.877 254.607 171.107 254.885 171.416C255.173 171.715 255.317 172.152 255.317 172.728C255.327 173.443 255.055 174.035 254.501 174.504C253.957 174.963 253.215 175.192 252.277 175.192ZM260.805 175.192C260.047 175.192 259.375 175.021 258.789 174.68C258.202 174.328 257.738 173.843 257.397 173.224C257.066 172.605 256.901 171.875 256.901 171.032C256.901 170.2 257.066 169.475 257.397 168.856C257.727 168.227 258.186 167.741 258.773 167.4C259.37 167.048 260.058 166.872 260.837 166.872C261.605 166.872 262.266 167.048 262.821 167.4C263.386 167.741 263.818 168.195 264.117 168.76C264.415 169.325 264.565 169.933 264.565 170.584C264.565 170.701 264.559 170.819 264.549 170.936C264.549 171.053 264.549 171.187 264.549 171.336H258.229C258.261 171.944 258.399 172.451 258.645 172.856C258.901 173.251 259.215 173.549 259.589 173.752C259.973 173.955 260.378 174.056 260.805 174.056C261.359 174.056 261.823 173.928 262.197 173.672C262.57 173.416 262.842 173.069 263.013 172.632H264.341C264.127 173.368 263.717 173.981 263.109 174.472C262.511 174.952 261.743 175.192 260.805 175.192ZM260.805 168.008C260.165 168.008 259.594 168.205 259.093 168.6C258.602 168.984 258.319 169.549 258.245 170.296H263.237C263.205 169.581 262.959 169.021 262.501 168.616C262.042 168.211 261.477 168.008 260.805 168.008ZM269.994 175.192C269.237 175.192 268.554 175.021 267.946 174.68C267.349 174.328 266.874 173.843 266.522 173.224C266.181 172.595 266.01 171.864 266.01 171.032C266.01 170.2 266.181 169.475 266.522 168.856C266.874 168.227 267.349 167.741 267.946 167.4C268.554 167.048 269.237 166.872 269.994 166.872C270.933 166.872 271.722 167.117 272.362 167.608C273.013 168.099 273.424 168.755 273.594 169.576H272.218C272.112 169.085 271.85 168.707 271.434 168.44C271.018 168.163 270.533 168.024 269.978 168.024C269.53 168.024 269.109 168.136 268.714 168.36C268.32 168.584 268 168.92 267.754 169.368C267.509 169.816 267.386 170.371 267.386 171.032C267.386 171.693 267.509 172.248 267.754 172.696C268 173.144 268.32 173.485 268.714 173.72C269.109 173.944 269.53 174.056 269.978 174.056C270.533 174.056 271.018 173.923 271.434 173.656C271.85 173.379 272.112 172.989 272.218 172.488H273.594C273.434 173.288 273.029 173.939 272.378 174.44C271.728 174.941 270.933 175.192 269.994 175.192ZM278.388 175C277.663 175 277.092 174.824 276.676 174.472C276.26 174.12 276.052 173.485 276.052 172.568V168.2H274.676V167.064H276.052L276.228 165.16H277.396V167.064H279.732V168.2H277.396V172.568C277.396 173.069 277.498 173.411 277.7 173.592C277.903 173.763 278.26 173.848 278.772 173.848H279.604V175H278.388ZM284.789 175.192C284.032 175.192 283.36 175.021 282.773 174.68C282.187 174.328 281.723 173.843 281.381 173.224C281.051 172.605 280.885 171.875 280.885 171.032C280.885 170.2 281.051 169.475 281.381 168.856C281.712 168.227 282.171 167.741 282.757 167.4C283.355 167.048 284.043 166.872 284.821 166.872C285.589 166.872 286.251 167.048 286.805 167.4C287.371 167.741 287.803 168.195 288.101 168.76C288.4 169.325 288.549 169.933 288.549 170.584C288.549 170.701 288.544 170.819 288.533 170.936C288.533 171.053 288.533 171.187 288.533 171.336H282.213C282.245 171.944 282.384 172.451 282.629 172.856C282.885 173.251 283.2 173.549 283.573 173.752C283.957 173.955 284.363 174.056 284.789 174.056C285.344 174.056 285.808 173.928 286.181 173.672C286.555 173.416 286.827 173.069 286.997 172.632H288.325C288.112 173.368 287.701 173.981 287.093 174.472C286.496 174.952 285.728 175.192 284.789 175.192ZM284.789 168.008C284.149 168.008 283.579 168.205 283.077 168.6C282.587 168.984 282.304 169.549 282.229 170.296H287.221C287.189 169.581 286.944 169.021 286.485 168.616C286.027 168.211 285.461 168.008 284.789 168.008ZM293.201 175C292.476 175 291.905 174.824 291.489 174.472C291.073 174.12 290.865 173.485 290.865 172.568V168.2H289.489V167.064H290.865L291.041 165.16H292.209V167.064H294.545V168.2H292.209V172.568C292.209 173.069 292.31 173.411 292.513 173.592C292.716 173.763 293.073 173.848 293.585 173.848H294.417V175H293.201ZM299.148 175.192C298.21 175.192 297.463 174.909 296.908 174.344C296.354 173.768 296.076 172.888 296.076 171.704V167.064H297.42V171.56C297.42 173.213 298.098 174.04 299.452 174.04C300.146 174.04 300.716 173.795 301.164 173.304C301.623 172.803 301.852 172.093 301.852 171.176V167.064H303.196V175H301.98L301.884 173.576C301.639 174.077 301.271 174.472 300.78 174.76C300.3 175.048 299.756 175.192 299.148 175.192ZM305.409 175V167.064H306.625L306.737 168.584C306.982 168.061 307.355 167.645 307.857 167.336C308.358 167.027 308.977 166.872 309.713 166.872V168.28H309.345C308.875 168.28 308.443 168.365 308.049 168.536C307.654 168.696 307.339 168.973 307.105 169.368C306.87 169.763 306.753 170.307 306.753 171V175H305.409ZM108.057 199.192C107.395 199.192 106.846 199.08 106.409 198.856C105.971 198.632 105.646 198.333 105.433 197.96C105.219 197.587 105.113 197.181 105.113 196.744C105.113 195.933 105.422 195.309 106.041 194.872C106.659 194.435 107.502 194.216 108.569 194.216H110.713V194.12C110.713 193.427 110.531 192.904 110.169 192.552C109.806 192.189 109.321 192.008 108.713 192.008C108.19 192.008 107.737 192.141 107.353 192.408C106.979 192.664 106.745 193.043 106.649 193.544H105.273C105.326 192.968 105.518 192.483 105.849 192.088C106.19 191.693 106.611 191.395 107.113 191.192C107.614 190.979 108.147 190.872 108.713 190.872C109.822 190.872 110.654 191.171 111.209 191.768C111.774 192.355 112.057 193.139 112.057 194.12V199H110.857L110.777 197.576C110.553 198.024 110.222 198.408 109.785 198.728C109.358 199.037 108.782 199.192 108.057 199.192ZM108.265 198.056C108.777 198.056 109.214 197.923 109.577 197.656C109.95 197.389 110.233 197.043 110.425 196.616C110.617 196.189 110.713 195.741 110.713 195.272V195.256H108.681C107.891 195.256 107.331 195.395 107.001 195.672C106.681 195.939 106.521 196.275 106.521 196.68C106.521 197.096 106.67 197.432 106.969 197.688C107.278 197.933 107.71 198.056 108.265 198.056ZM117.673 199.192C116.883 199.192 116.19 199.011 115.593 198.648C115.006 198.285 114.547 197.789 114.217 197.16C113.897 196.531 113.737 195.816 113.737 195.016C113.737 194.216 113.902 193.507 114.233 192.888C114.563 192.259 115.022 191.768 115.609 191.416C116.195 191.053 116.889 190.872 117.689 190.872C118.339 190.872 118.915 191.005 119.417 191.272C119.918 191.539 120.307 191.912 120.585 192.392V187.48H121.929V199H120.713L120.585 197.688C120.329 198.072 119.961 198.419 119.481 198.728C119.001 199.037 118.398 199.192 117.673 199.192ZM117.817 198.024C118.35 198.024 118.819 197.901 119.225 197.656C119.641 197.4 119.961 197.048 120.185 196.6C120.419 196.152 120.537 195.629 120.537 195.032C120.537 194.435 120.419 193.912 120.185 193.464C119.961 193.016 119.641 192.669 119.225 192.424C118.819 192.168 118.35 192.04 117.817 192.04C117.294 192.04 116.825 192.168 116.409 192.424C116.003 192.669 115.683 193.016 115.449 193.464C115.225 193.912 115.113 194.435 115.113 195.032C115.113 195.629 115.225 196.152 115.449 196.6C115.683 197.048 116.003 197.4 116.409 197.656C116.825 197.901 117.294 198.024 117.817 198.024ZM124.936 189.304C124.669 189.304 124.445 189.219 124.264 189.048C124.093 188.867 124.008 188.643 124.008 188.376C124.008 188.12 124.093 187.907 124.264 187.736C124.445 187.565 124.669 187.48 124.936 187.48C125.192 187.48 125.41 187.565 125.592 187.736C125.773 187.907 125.864 188.12 125.864 188.376C125.864 188.643 125.773 188.867 125.592 189.048C125.41 189.219 125.192 189.304 124.936 189.304ZM124.264 199V191.064H125.608V199H124.264ZM127.948 202.52V191.064H129.164L129.292 192.376C129.548 191.992 129.91 191.645 130.38 191.336C130.86 191.027 131.468 190.872 132.204 190.872C132.993 190.872 133.681 191.053 134.268 191.416C134.854 191.779 135.308 192.275 135.628 192.904C135.958 193.533 136.124 194.248 136.124 195.048C136.124 195.848 135.958 196.563 135.628 197.192C135.308 197.811 134.849 198.301 134.252 198.664C133.665 199.016 132.977 199.192 132.188 199.192C131.537 199.192 130.956 199.059 130.444 198.792C129.942 198.525 129.558 198.152 129.292 197.672V202.52H127.948ZM132.044 198.024C132.577 198.024 133.046 197.901 133.452 197.656C133.857 197.4 134.177 197.048 134.412 196.6C134.646 196.152 134.764 195.629 134.764 195.032C134.764 194.435 134.646 193.912 134.412 193.464C134.177 193.016 133.857 192.669 133.452 192.424C133.046 192.168 132.577 192.04 132.044 192.04C131.51 192.04 131.041 192.168 130.636 192.424C130.23 192.669 129.91 193.016 129.676 193.464C129.441 193.912 129.324 194.435 129.324 195.032C129.324 195.629 129.441 196.152 129.676 196.6C129.91 197.048 130.23 197.4 130.636 197.656C131.041 197.901 131.51 198.024 132.044 198.024ZM138.811 189.304C138.544 189.304 138.32 189.219 138.139 189.048C137.968 188.867 137.883 188.643 137.883 188.376C137.883 188.12 137.968 187.907 138.139 187.736C138.32 187.565 138.544 187.48 138.811 187.48C139.067 187.48 139.285 187.565 139.467 187.736C139.648 187.907 139.739 188.12 139.739 188.376C139.739 188.643 139.648 188.867 139.467 189.048C139.285 189.219 139.067 189.304 138.811 189.304ZM138.139 199V191.064H139.483V199H138.139ZM144.863 199.192C143.913 199.192 143.124 198.952 142.495 198.472C141.865 197.992 141.497 197.341 141.391 196.52H142.767C142.852 196.936 143.071 197.299 143.423 197.608C143.785 197.907 144.271 198.056 144.879 198.056C145.444 198.056 145.86 197.939 146.127 197.704C146.393 197.459 146.527 197.171 146.527 196.84C146.527 196.36 146.351 196.04 145.999 195.88C145.657 195.72 145.172 195.576 144.543 195.448C144.116 195.363 143.689 195.24 143.263 195.08C142.836 194.92 142.479 194.696 142.191 194.408C141.903 194.109 141.759 193.72 141.759 193.24C141.759 192.547 142.015 191.981 142.527 191.544C143.049 191.096 143.753 190.872 144.639 190.872C145.481 190.872 146.169 191.085 146.703 191.512C147.247 191.928 147.561 192.525 147.647 193.304H146.319C146.265 192.899 146.089 192.584 145.791 192.36C145.503 192.125 145.113 192.008 144.623 192.008C144.143 192.008 143.769 192.109 143.503 192.312C143.247 192.515 143.119 192.781 143.119 193.112C143.119 193.432 143.284 193.683 143.615 193.864C143.956 194.045 144.415 194.2 144.991 194.328C145.481 194.435 145.945 194.568 146.383 194.728C146.831 194.877 147.193 195.107 147.471 195.416C147.759 195.715 147.903 196.152 147.903 196.728C147.913 197.443 147.641 198.035 147.087 198.504C146.543 198.963 145.801 199.192 144.863 199.192ZM153.471 199.192C152.713 199.192 152.031 199.021 151.423 198.68C150.825 198.328 150.351 197.843 149.999 197.224C149.657 196.595 149.487 195.864 149.487 195.032C149.487 194.2 149.657 193.475 149.999 192.856C150.351 192.227 150.825 191.741 151.423 191.4C152.031 191.048 152.713 190.872 153.471 190.872C154.409 190.872 155.199 191.117 155.839 191.608C156.489 192.099 156.9 192.755 157.071 193.576H155.695C155.588 193.085 155.327 192.707 154.911 192.44C154.495 192.163 154.009 192.024 153.455 192.024C153.007 192.024 152.585 192.136 152.191 192.36C151.796 192.584 151.476 192.92 151.231 193.368C150.985 193.816 150.863 194.371 150.863 195.032C150.863 195.693 150.985 196.248 151.231 196.696C151.476 197.144 151.796 197.485 152.191 197.72C152.585 197.944 153.007 198.056 153.455 198.056C154.009 198.056 154.495 197.923 154.911 197.656C155.327 197.379 155.588 196.989 155.695 196.488H157.071C156.911 197.288 156.505 197.939 155.855 198.44C155.204 198.941 154.409 199.192 153.471 199.192ZM159.764 189.304C159.497 189.304 159.273 189.219 159.092 189.048C158.921 188.867 158.836 188.643 158.836 188.376C158.836 188.12 158.921 187.907 159.092 187.736C159.273 187.565 159.497 187.48 159.764 187.48C160.02 187.48 160.238 187.565 160.42 187.736C160.601 187.907 160.692 188.12 160.692 188.376C160.692 188.643 160.601 188.867 160.42 189.048C160.238 189.219 160.02 189.304 159.764 189.304ZM159.092 199V191.064H160.436V199H159.092ZM162.776 199V191.064H163.992L164.072 192.488C164.328 191.987 164.696 191.592 165.176 191.304C165.656 191.016 166.2 190.872 166.808 190.872C167.747 190.872 168.493 191.16 169.048 191.736C169.613 192.301 169.896 193.176 169.896 194.36V199H168.552V194.504C168.552 192.851 167.869 192.024 166.504 192.024C165.821 192.024 165.251 192.275 164.792 192.776C164.344 193.267 164.12 193.971 164.12 194.888V199H162.776ZM175.068 196.504C174.62 196.504 174.209 196.445 173.836 196.328L173.036 197.08C173.153 197.165 173.297 197.24 173.468 197.304C173.649 197.357 173.905 197.411 174.236 197.464C174.567 197.507 175.031 197.555 175.628 197.608C176.695 197.683 177.457 197.928 177.916 198.344C178.375 198.76 178.604 199.304 178.604 199.976C178.604 200.435 178.476 200.872 178.22 201.288C177.975 201.704 177.591 202.045 177.068 202.312C176.556 202.579 175.895 202.712 175.084 202.712C174.369 202.712 173.735 202.616 173.18 202.424C172.625 202.243 172.193 201.96 171.884 201.576C171.575 201.203 171.42 200.728 171.42 200.152C171.42 199.853 171.5 199.528 171.66 199.176C171.82 198.835 172.119 198.509 172.556 198.2C172.321 198.104 172.119 198.003 171.948 197.896C171.788 197.779 171.639 197.651 171.5 197.512V197.144L172.86 195.8C172.231 195.267 171.916 194.563 171.916 193.688C171.916 193.165 172.039 192.691 172.284 192.264C172.529 191.837 172.887 191.501 173.356 191.256C173.825 191 174.396 190.872 175.068 190.872C175.527 190.872 175.943 190.936 176.316 191.064H179.244V192.072L177.756 192.136C178.065 192.584 178.22 193.101 178.22 193.688C178.22 194.211 178.092 194.685 177.836 195.112C177.591 195.539 177.233 195.88 176.764 196.136C176.305 196.381 175.74 196.504 175.068 196.504ZM175.068 195.4C175.633 195.4 176.081 195.256 176.412 194.968C176.753 194.669 176.924 194.243 176.924 193.688C176.924 193.144 176.753 192.728 176.412 192.44C176.081 192.141 175.633 191.992 175.068 191.992C174.492 191.992 174.033 192.141 173.692 192.44C173.361 192.728 173.196 193.144 173.196 193.688C173.196 194.243 173.361 194.669 173.692 194.968C174.033 195.256 174.492 195.4 175.068 195.4ZM172.732 200.024C172.732 200.557 172.956 200.952 173.404 201.208C173.852 201.475 174.412 201.608 175.084 201.608C175.745 201.608 176.273 201.464 176.668 201.176C177.073 200.888 177.276 200.504 177.276 200.024C177.276 199.683 177.137 199.384 176.86 199.128C176.583 198.883 176.071 198.739 175.324 198.696C174.737 198.653 174.231 198.6 173.804 198.536C173.367 198.771 173.079 199.021 172.94 199.288C172.801 199.565 172.732 199.811 172.732 200.024ZM188.563 199.192C187.805 199.192 187.133 199.021 186.547 198.68C185.96 198.328 185.496 197.843 185.155 197.224C184.824 196.605 184.659 195.875 184.659 195.032C184.659 194.2 184.824 193.475 185.155 192.856C185.485 192.227 185.944 191.741 186.531 191.4C187.128 191.048 187.816 190.872 188.595 190.872C189.363 190.872 190.024 191.048 190.579 191.4C191.144 191.741 191.576 192.195 191.875 192.76C192.173 193.325 192.323 193.933 192.323 194.584C192.323 194.701 192.317 194.819 192.307 194.936C192.307 195.053 192.307 195.187 192.307 195.336H185.987C186.019 195.944 186.157 196.451 186.403 196.856C186.659 197.251 186.973 197.549 187.347 197.752C187.731 197.955 188.136 198.056 188.563 198.056C189.117 198.056 189.581 197.928 189.955 197.672C190.328 197.416 190.6 197.069 190.771 196.632H192.099C191.885 197.368 191.475 197.981 190.867 198.472C190.269 198.952 189.501 199.192 188.563 199.192ZM188.563 192.008C187.923 192.008 187.352 192.205 186.851 192.6C186.36 192.984 186.077 193.549 186.003 194.296H190.995C190.963 193.581 190.717 193.021 190.259 192.616C189.8 192.211 189.235 192.008 188.563 192.008ZM194.104 199V187.48H195.448V199H194.104ZM198.467 189.304C198.2 189.304 197.976 189.219 197.795 189.048C197.624 188.867 197.539 188.643 197.539 188.376C197.539 188.12 197.624 187.907 197.795 187.736C197.976 187.565 198.2 187.48 198.467 187.48C198.723 187.48 198.942 187.565 199.123 187.736C199.304 187.907 199.395 188.12 199.395 188.376C199.395 188.643 199.304 188.867 199.123 189.048C198.942 189.219 198.723 189.304 198.467 189.304ZM197.795 199V191.064H199.139V199H197.795ZM204.615 199C203.89 199 203.319 198.824 202.903 198.472C202.487 198.12 202.279 197.485 202.279 196.568V192.2H200.903V191.064H202.279L202.455 189.16H203.623V191.064H205.959V192.2H203.623V196.568C203.623 197.069 203.724 197.411 203.927 197.592C204.13 197.763 204.487 197.848 204.999 197.848H205.831V199H204.615ZM208.131 199.08C207.864 199.08 207.64 198.995 207.459 198.824C207.288 198.643 207.203 198.424 207.203 198.168C207.203 197.912 207.288 197.699 207.459 197.528C207.64 197.347 207.864 197.256 208.131 197.256C208.387 197.256 208.6 197.347 208.771 197.528C208.952 197.699 209.043 197.912 209.043 198.168C209.043 198.424 208.952 198.643 208.771 198.824C208.6 198.995 208.387 199.08 208.131 199.08Z" fill="#006347"/>
<g filter="url(#filter0_d_47_71)">
<rect x="106.156" width="100.569" height="95.8408" rx="15" fill="#006347"/>
</g>
<path d="M179.333 25.8334H132.667V39.8334H179.333V25.8334Z" stroke="white" stroke-width="4" stroke-linejoin="round"/>
<path d="M132.667 67.8683L146.872 53.5183L154.548 60.8683L163.931 51.5L169.158 56.596" stroke="white" stroke-width="4" stroke-linecap="round" stroke-linejoin="round"/>
<path d="M179.333 38.8673V69.2007M132.667 38.8673V55.2007M143.185 70.1667H179.333M147.833 32.8333H172.333M139.667 32.8298H140.833" stroke="white" stroke-width="4" stroke-linecap="round"/>
<defs>
<filter id="filter0_d_47_71" x="102.156" y="0" width="108.569" height="103.841" filterUnits="userSpaceOnUse" color-interpolation-filters="sRGB">
<feFlood flood-opacity="0" result="BackgroundImageFix"/>
<feColorMatrix in="SourceAlpha" type="matrix" values="0 0 0 0 0 0 0 0 0 0 0 0 0 0 0 0 0 0 127 0" result="hardAlpha"/>
<feOffset dy="4"/>
<feGaussianBlur stdDeviation="2"/>
<feComposite in2="hardAlpha" operator="out"/>
<feColorMatrix type="matrix" values="0 0 0 0 0 0 0 0 0 0 0 0 0 0 0 0 0 0 0.4 0"/>
<feBlend mode="normal" in2="BackgroundImageFix" result="effect1_dropShadow_47_71"/>
<feBlend mode="normal" in="SourceGraphic" in2="effect1_dropShadow_47_71" result="shape"/>
</filter>
</defs>
</svg>
