<svg width="313" height="224" viewBox="0 0 313 224" fill="none" xmlns="http://www.w3.org/2000/svg">
<path d="M43.38 128.318V131.058H37.66V134.018H41.94V136.678H37.66V142.358H34.24V128.318H43.38ZM48.5975 127.558V142.358H45.1775V127.558H48.5975ZM56.1559 142.518C55.0626 142.518 54.0759 142.285 53.1959 141.818C52.3293 141.351 51.6426 140.685 51.1359 139.818C50.6426 138.951 50.3959 137.938 50.3959 136.778C50.3959 135.631 50.6493 134.625 51.1559 133.758C51.6626 132.878 52.3559 132.205 53.2359 131.738C54.1159 131.271 55.1026 131.038 56.1959 131.038C57.2893 131.038 58.2759 131.271 59.1559 131.738C60.0359 132.205 60.7293 132.878 61.2359 133.758C61.7426 134.625 61.9959 135.631 61.9959 136.778C61.9959 137.925 61.7359 138.938 61.2159 139.818C60.7093 140.685 60.0093 141.351 59.1159 141.818C58.2359 142.285 57.2493 142.518 56.1559 142.518ZM56.1559 139.558C56.8093 139.558 57.3626 139.318 57.8159 138.838C58.2826 138.358 58.5159 137.671 58.5159 136.778C58.5159 135.885 58.2893 135.198 57.8359 134.718C57.3959 134.238 56.8493 133.998 56.1959 133.998C55.5293 133.998 54.9759 134.238 54.5359 134.718C54.0959 135.185 53.8759 135.871 53.8759 136.778C53.8759 137.671 54.0893 138.358 54.5159 138.838C54.9559 139.318 55.5026 139.558 56.1559 139.558ZM63.1303 136.778C63.1303 135.618 63.3636 134.605 63.8303 133.738C64.3103 132.871 64.9703 132.205 65.8103 131.738C66.6636 131.271 67.637 131.038 68.7303 131.038C70.1303 131.038 71.297 131.405 72.2303 132.138C73.177 132.871 73.797 133.905 74.0903 135.238H70.4503C70.1436 134.385 69.5503 133.958 68.6703 133.958C68.0436 133.958 67.5436 134.205 67.1703 134.698C66.797 135.178 66.6103 135.871 66.6103 136.778C66.6103 137.685 66.797 138.385 67.1703 138.878C67.5436 139.358 68.0436 139.598 68.6703 139.598C69.5503 139.598 70.1436 139.171 70.4503 138.318H74.0903C73.797 139.625 73.177 140.651 72.2303 141.398C71.2836 142.145 70.117 142.518 68.7303 142.518C67.637 142.518 66.6636 142.285 65.8103 141.818C64.9703 141.351 64.3103 140.685 63.8303 139.818C63.3636 138.951 63.1303 137.938 63.1303 136.778ZM82.7397 142.358L79.3397 137.678V142.358H75.9197V127.558H79.3397V135.738L82.7197 131.198H86.9397L82.2997 136.798L86.9797 142.358H82.7397ZM104.681 128.318V142.358H101.261V136.578H95.9413V142.358H92.5213V128.318H95.9413V133.818H101.261V128.318H104.681ZM117.67 136.598C117.67 136.918 117.65 137.251 117.61 137.598H109.87C109.923 138.291 110.143 138.825 110.53 139.198C110.93 139.558 111.417 139.738 111.99 139.738C112.843 139.738 113.437 139.378 113.77 138.658H117.41C117.223 139.391 116.883 140.051 116.39 140.638C115.91 141.225 115.303 141.685 114.57 142.018C113.837 142.351 113.017 142.518 112.11 142.518C111.017 142.518 110.043 142.285 109.19 141.818C108.337 141.351 107.67 140.685 107.19 139.818C106.71 138.951 106.47 137.938 106.47 136.778C106.47 135.618 106.703 134.605 107.17 133.738C107.65 132.871 108.317 132.205 109.17 131.738C110.023 131.271 111.003 131.038 112.11 131.038C113.19 131.038 114.15 131.265 114.99 131.718C115.83 132.171 116.483 132.818 116.95 133.658C117.43 134.498 117.67 135.478 117.67 136.598ZM114.17 135.698C114.17 135.111 113.97 134.645 113.57 134.298C113.17 133.951 112.67 133.778 112.07 133.778C111.497 133.778 111.01 133.945 110.61 134.278C110.223 134.611 109.983 135.085 109.89 135.698H114.17ZM118.794 136.758C118.794 135.611 119.008 134.605 119.434 133.738C119.874 132.871 120.468 132.205 121.214 131.738C121.961 131.271 122.794 131.038 123.714 131.038C124.501 131.038 125.188 131.198 125.774 131.518C126.374 131.838 126.834 132.258 127.154 132.778V131.198H130.574V142.358H127.154V140.778C126.821 141.298 126.354 141.718 125.754 142.038C125.168 142.358 124.481 142.518 123.694 142.518C122.788 142.518 121.961 142.285 121.214 141.818C120.468 141.338 119.874 140.665 119.434 139.798C119.008 138.918 118.794 137.905 118.794 136.758ZM127.154 136.778C127.154 135.925 126.914 135.251 126.434 134.758C125.968 134.265 125.394 134.018 124.714 134.018C124.034 134.018 123.454 134.265 122.974 134.758C122.508 135.238 122.274 135.905 122.274 136.758C122.274 137.611 122.508 138.291 122.974 138.798C123.454 139.291 124.034 139.538 124.714 139.538C125.394 139.538 125.968 139.291 126.434 138.798C126.914 138.305 127.154 137.631 127.154 136.778ZM136.469 127.558V142.358H133.049V127.558H136.469ZM145.167 139.458V142.358H143.427C142.187 142.358 141.22 142.058 140.527 141.458C139.834 140.845 139.487 139.851 139.487 138.478V134.038H138.127V131.198H139.487V128.478H142.907V131.198H145.147V134.038H142.907V138.518C142.907 138.851 142.987 139.091 143.147 139.238C143.307 139.385 143.574 139.458 143.947 139.458H145.167ZM153.932 131.078C155.212 131.078 156.239 131.505 157.012 132.358C157.785 133.198 158.172 134.358 158.172 135.838V142.358H154.772V136.298C154.772 135.551 154.579 134.971 154.192 134.558C153.805 134.145 153.285 133.938 152.632 133.938C151.979 133.938 151.459 134.145 151.072 134.558C150.685 134.971 150.492 135.551 150.492 136.298V142.358H147.072V127.558H150.492V132.698C150.839 132.205 151.312 131.811 151.912 131.518C152.512 131.225 153.185 131.078 153.932 131.078ZM180.687 128.318V142.358H177.267V133.938L174.127 142.358H171.367L168.207 133.918V142.358H164.787V128.318H168.827L172.767 138.038L176.667 128.318H180.687ZM188.226 142.518C187.133 142.518 186.146 142.285 185.266 141.818C184.4 141.351 183.713 140.685 183.206 139.818C182.713 138.951 182.466 137.938 182.466 136.778C182.466 135.631 182.72 134.625 183.226 133.758C183.733 132.878 184.426 132.205 185.306 131.738C186.186 131.271 187.173 131.038 188.266 131.038C189.36 131.038 190.346 131.271 191.226 131.738C192.106 132.205 192.8 132.878 193.306 133.758C193.813 134.625 194.066 135.631 194.066 136.778C194.066 137.925 193.806 138.938 193.286 139.818C192.78 140.685 192.08 141.351 191.186 141.818C190.306 142.285 189.32 142.518 188.226 142.518ZM188.226 139.558C188.88 139.558 189.433 139.318 189.886 138.838C190.353 138.358 190.586 137.671 190.586 136.778C190.586 135.885 190.36 135.198 189.906 134.718C189.466 134.238 188.92 133.998 188.266 133.998C187.6 133.998 187.046 134.238 186.606 134.718C186.166 135.185 185.946 135.871 185.946 136.778C185.946 137.671 186.16 138.358 186.586 138.838C187.026 139.318 187.573 139.558 188.226 139.558ZM202.681 131.078C203.987 131.078 205.027 131.505 205.801 132.358C206.587 133.198 206.981 134.358 206.981 135.838V142.358H203.581V136.298C203.581 135.551 203.387 134.971 203.001 134.558C202.614 134.145 202.094 133.938 201.441 133.938C200.787 133.938 200.267 134.145 199.881 134.558C199.494 134.971 199.301 135.551 199.301 136.298V142.358H195.881V131.198H199.301V132.678C199.647 132.185 200.114 131.798 200.701 131.518C201.287 131.225 201.947 131.078 202.681 131.078ZM211.077 130.038C210.477 130.038 209.984 129.865 209.597 129.518C209.224 129.158 209.037 128.718 209.037 128.198C209.037 127.665 209.224 127.225 209.597 126.878C209.984 126.518 210.477 126.338 211.077 126.338C211.664 126.338 212.144 126.518 212.517 126.878C212.904 127.225 213.097 127.665 213.097 128.198C213.097 128.718 212.904 129.158 212.517 129.518C212.144 129.865 211.664 130.038 211.077 130.038ZM212.777 131.198V142.358H209.357V131.198H212.777ZM221.476 139.458V142.358H219.736C218.496 142.358 217.529 142.058 216.836 141.458C216.142 140.845 215.796 139.851 215.796 138.478V134.038H214.436V131.198H215.796V128.478H219.216V131.198H221.456V134.038H219.216V138.518C219.216 138.851 219.296 139.091 219.456 139.238C219.616 139.385 219.882 139.458 220.256 139.458H221.476ZM228.461 142.518C227.367 142.518 226.381 142.285 225.501 141.818C224.634 141.351 223.947 140.685 223.441 139.818C222.947 138.951 222.701 137.938 222.701 136.778C222.701 135.631 222.954 134.625 223.461 133.758C223.967 132.878 224.661 132.205 225.541 131.738C226.421 131.271 227.407 131.038 228.501 131.038C229.594 131.038 230.581 131.271 231.461 131.738C232.341 132.205 233.034 132.878 233.541 133.758C234.047 134.625 234.301 135.631 234.301 136.778C234.301 137.925 234.041 138.938 233.521 139.818C233.014 140.685 232.314 141.351 231.421 141.818C230.541 142.285 229.554 142.518 228.461 142.518ZM228.461 139.558C229.114 139.558 229.667 139.318 230.121 138.838C230.587 138.358 230.821 137.671 230.821 136.778C230.821 135.885 230.594 135.198 230.141 134.718C229.701 134.238 229.154 133.998 228.501 133.998C227.834 133.998 227.281 134.238 226.841 134.718C226.401 135.185 226.181 135.871 226.181 136.778C226.181 137.671 226.394 138.358 226.821 138.838C227.261 139.318 227.807 139.558 228.461 139.558ZM239.535 133.058C239.935 132.445 240.435 131.965 241.035 131.618C241.635 131.258 242.302 131.078 243.035 131.078V134.698H242.095C241.242 134.698 240.602 134.885 240.175 135.258C239.748 135.618 239.535 136.258 239.535 137.178V142.358H236.115V131.198H239.535V133.058ZM246.39 130.038C245.79 130.038 245.296 129.865 244.91 129.518C244.536 129.158 244.35 128.718 244.35 128.198C244.35 127.665 244.536 127.225 244.91 126.878C245.296 126.518 245.79 126.338 246.39 126.338C246.976 126.338 247.456 126.518 247.83 126.878C248.216 127.225 248.41 127.665 248.41 128.198C248.41 128.718 248.216 129.158 247.83 129.518C247.456 129.865 246.976 130.038 246.39 130.038ZM248.09 131.198V142.358H244.67V131.198H248.09ZM257.368 131.078C258.675 131.078 259.715 131.505 260.488 132.358C261.275 133.198 261.668 134.358 261.668 135.838V142.358H258.268V136.298C258.268 135.551 258.075 134.971 257.688 134.558C257.301 134.145 256.781 133.938 256.128 133.938C255.475 133.938 254.955 134.145 254.568 134.558C254.181 134.971 253.988 135.551 253.988 136.298V142.358H250.568V131.198H253.988V132.678C254.335 132.185 254.801 131.798 255.388 131.518C255.975 131.225 256.635 131.078 257.368 131.078ZM268.285 131.038C269.071 131.038 269.758 131.198 270.345 131.518C270.945 131.838 271.405 132.258 271.725 132.778V131.198H275.145V142.338C275.145 143.365 274.938 144.291 274.525 145.118C274.125 145.958 273.505 146.625 272.665 147.118C271.838 147.611 270.805 147.858 269.565 147.858C267.911 147.858 266.571 147.465 265.545 146.678C264.518 145.905 263.931 144.851 263.785 143.518H267.165C267.271 143.945 267.525 144.278 267.925 144.518C268.325 144.771 268.818 144.898 269.405 144.898C270.111 144.898 270.671 144.691 271.085 144.278C271.511 143.878 271.725 143.231 271.725 142.338V140.758C271.391 141.278 270.931 141.705 270.345 142.038C269.758 142.358 269.071 142.518 268.285 142.518C267.365 142.518 266.531 142.285 265.785 141.818C265.038 141.338 264.445 140.665 264.005 139.798C263.578 138.918 263.365 137.905 263.365 136.758C263.365 135.611 263.578 134.605 264.005 133.738C264.445 132.871 265.038 132.205 265.785 131.738C266.531 131.271 267.365 131.038 268.285 131.038ZM271.725 136.778C271.725 135.925 271.485 135.251 271.005 134.758C270.538 134.265 269.965 134.018 269.285 134.018C268.605 134.018 268.025 134.265 267.545 134.758C267.078 135.238 266.845 135.905 266.845 136.758C266.845 137.611 267.078 138.291 267.545 138.798C268.025 139.291 268.605 139.538 269.285 139.538C269.965 139.538 270.538 139.291 271.005 138.798C271.485 138.305 271.725 137.631 271.725 136.778Z" fill="#006347"/>
<path d="M10.1016 175.471C9.05623 175.471 8.1389 175.231 7.34956 174.751C6.56023 174.26 5.9469 173.583 5.50956 172.719C5.07223 171.844 4.85356 170.836 4.85356 169.695C4.85356 168.553 5.07223 167.545 5.50956 166.671C5.95756 165.796 6.5869 165.113 7.39756 164.623C8.2189 164.132 9.18423 163.887 10.2936 163.887C11.5522 163.887 12.5976 164.191 13.4296 164.799C14.2722 165.407 14.8162 166.244 15.0616 167.311H13.5096C13.3602 166.639 13.0029 166.105 12.4376 165.711C11.8829 165.316 11.1682 165.119 10.2936 165.119C9.47223 165.119 8.75756 165.305 8.14956 165.679C7.54156 166.041 7.0669 166.564 6.72556 167.247C6.3949 167.929 6.22956 168.745 6.22956 169.695C6.22956 170.644 6.3949 171.46 6.72556 172.143C7.05623 172.825 7.5149 173.353 8.10156 173.727C8.68823 174.089 9.3709 174.271 10.1496 174.271C11.3442 174.271 12.2456 173.924 12.8536 173.231C13.4616 172.527 13.8082 171.567 13.8936 170.351H10.6616V169.295H15.2696V175.279H14.0376L13.9256 173.439C13.5202 174.089 13.0242 174.591 12.4376 174.943C11.8509 175.295 11.0722 175.471 10.1016 175.471ZM20.9309 175.471C20.1843 175.471 19.5123 175.3 18.9149 174.959C18.3176 174.617 17.8429 174.137 17.4909 173.519C17.1496 172.889 16.9789 172.153 16.9789 171.311C16.9789 170.468 17.1549 169.737 17.5069 169.119C17.8589 168.489 18.3336 168.004 18.9309 167.663C19.5389 167.321 20.2163 167.151 20.9629 167.151C21.7096 167.151 22.3816 167.321 22.9789 167.663C23.5763 168.004 24.0456 168.489 24.3869 169.119C24.7389 169.737 24.9149 170.468 24.9149 171.311C24.9149 172.153 24.7389 172.889 24.3869 173.519C24.0349 174.137 23.5549 174.617 22.9469 174.959C22.3496 175.3 21.6776 175.471 20.9309 175.471ZM20.9309 174.319C21.3896 174.319 21.8163 174.207 22.2109 173.983C22.6056 173.759 22.9256 173.423 23.1709 172.975C23.4163 172.527 23.5389 171.972 23.5389 171.311C23.5389 170.649 23.4163 170.095 23.1709 169.647C22.9363 169.199 22.6216 168.863 22.2269 168.639C21.8323 168.415 21.4109 168.303 20.9629 168.303C20.5043 168.303 20.0776 168.415 19.6829 168.639C19.2883 168.863 18.9683 169.199 18.7229 169.647C18.4776 170.095 18.3549 170.649 18.3549 171.311C18.3549 171.972 18.4776 172.527 18.7229 172.975C18.9683 173.423 19.2829 173.759 19.6669 173.983C20.0616 174.207 20.4829 174.319 20.9309 174.319ZM26.7837 175.279V167.343H27.9997L28.1117 168.863C28.357 168.34 28.7304 167.924 29.2317 167.615C29.733 167.305 30.3517 167.151 31.0877 167.151V168.559H30.7197C30.2504 168.559 29.8184 168.644 29.4237 168.815C29.029 168.975 28.7144 169.252 28.4797 169.647C28.245 170.041 28.1277 170.585 28.1277 171.279V175.279H26.7837ZM35.8673 175.471C35.11 175.471 34.438 175.3 33.8513 174.959C33.2646 174.607 32.8006 174.121 32.4593 173.503C32.1286 172.884 31.9633 172.153 31.9633 171.311C31.9633 170.479 32.1286 169.753 32.4593 169.135C32.79 168.505 33.2486 168.02 33.8353 167.679C34.4326 167.327 35.1206 167.151 35.8993 167.151C36.6673 167.151 37.3286 167.327 37.8833 167.679C38.4486 168.02 38.8806 168.473 39.1793 169.039C39.478 169.604 39.6273 170.212 39.6273 170.863C39.6273 170.98 39.622 171.097 39.6113 171.215C39.6113 171.332 39.6113 171.465 39.6113 171.615H33.2913C33.3233 172.223 33.462 172.729 33.7073 173.135C33.9633 173.529 34.278 173.828 34.6513 174.031C35.0353 174.233 35.4406 174.335 35.8673 174.335C36.422 174.335 36.886 174.207 37.2593 173.951C37.6326 173.695 37.9046 173.348 38.0753 172.911H39.4033C39.19 173.647 38.7793 174.26 38.1713 174.751C37.574 175.231 36.806 175.471 35.8673 175.471ZM35.8673 168.287C35.2273 168.287 34.6566 168.484 34.1553 168.879C33.6646 169.263 33.382 169.828 33.3073 170.575H38.2993C38.2673 169.86 38.022 169.3 37.5633 168.895C37.1046 168.489 36.5393 168.287 35.8673 168.287ZM41.4087 175.279V167.343H42.6247L42.7207 168.495C42.9767 168.068 43.318 167.737 43.7447 167.503C44.1714 167.268 44.6514 167.151 45.1847 167.151C45.814 167.151 46.3527 167.279 46.8007 167.535C47.2594 167.791 47.6114 168.18 47.8567 168.703C48.134 168.223 48.5127 167.844 48.9927 167.567C49.4834 167.289 50.0114 167.151 50.5767 167.151C51.526 167.151 52.2834 167.439 52.8487 168.015C53.414 168.58 53.6967 169.455 53.6967 170.639V175.279H52.3687V170.783C52.3687 169.961 52.2034 169.343 51.8727 168.927C51.542 168.511 51.0674 168.303 50.4487 168.303C49.8087 168.303 49.2754 168.553 48.8487 169.055C48.4327 169.545 48.2247 170.249 48.2247 171.167V175.279H46.8807V170.783C46.8807 169.961 46.7154 169.343 46.3847 168.927C46.054 168.511 45.5794 168.303 44.9607 168.303C44.3314 168.303 43.8034 168.553 43.3767 169.055C42.9607 169.545 42.7527 170.249 42.7527 171.167V175.279H41.4087ZM60.7716 165.583C60.5049 165.583 60.2809 165.497 60.0996 165.327C59.9289 165.145 59.8436 164.921 59.8436 164.655C59.8436 164.399 59.9289 164.185 60.0996 164.015C60.2809 163.844 60.5049 163.759 60.7716 163.759C61.0276 163.759 61.2462 163.844 61.4276 164.015C61.6089 164.185 61.6996 164.399 61.6996 164.655C61.6996 164.921 61.6089 165.145 61.4276 165.327C61.2462 165.497 61.0276 165.583 60.7716 165.583ZM60.0996 175.279V167.343H61.4436V175.279H60.0996ZM63.7837 178.799V167.343H64.9997L65.1277 168.655C65.3837 168.271 65.7464 167.924 66.2157 167.615C66.6957 167.305 67.3037 167.151 68.0397 167.151C68.829 167.151 69.517 167.332 70.1037 167.695C70.6904 168.057 71.1437 168.553 71.4637 169.183C71.7944 169.812 71.9597 170.527 71.9597 171.327C71.9597 172.127 71.7944 172.841 71.4637 173.471C71.1437 174.089 70.685 174.58 70.0877 174.943C69.501 175.295 68.813 175.471 68.0237 175.471C67.373 175.471 66.7917 175.337 66.2797 175.071C65.7784 174.804 65.3944 174.431 65.1277 173.951V178.799H63.7837ZM67.8797 174.303C68.413 174.303 68.8824 174.18 69.2877 173.935C69.693 173.679 70.013 173.327 70.2477 172.879C70.4824 172.431 70.5997 171.908 70.5997 171.311C70.5997 170.713 70.4824 170.191 70.2477 169.743C70.013 169.295 69.693 168.948 69.2877 168.703C68.8824 168.447 68.413 168.319 67.8797 168.319C67.3464 168.319 66.877 168.447 66.4717 168.703C66.0664 168.948 65.7464 169.295 65.5117 169.743C65.277 170.191 65.1597 170.713 65.1597 171.311C65.1597 171.908 65.277 172.431 65.5117 172.879C65.7464 173.327 66.0664 173.679 66.4717 173.935C66.877 174.18 67.3464 174.303 67.8797 174.303ZM76.8706 175.471C75.9212 175.471 75.1319 175.231 74.5026 174.751C73.8732 174.271 73.5052 173.62 73.3986 172.799H74.7746C74.8599 173.215 75.0786 173.577 75.4306 173.887C75.7932 174.185 76.2786 174.335 76.8866 174.335C77.4519 174.335 77.8679 174.217 78.1346 173.983C78.4012 173.737 78.5346 173.449 78.5346 173.119C78.5346 172.639 78.3586 172.319 78.0066 172.159C77.6652 171.999 77.1799 171.855 76.5506 171.727C76.1239 171.641 75.6972 171.519 75.2706 171.359C74.8439 171.199 74.4866 170.975 74.1986 170.687C73.9106 170.388 73.7666 169.999 73.7666 169.519C73.7666 168.825 74.0226 168.26 74.5346 167.823C75.0572 167.375 75.7612 167.151 76.6466 167.151C77.4892 167.151 78.1772 167.364 78.7106 167.791C79.2546 168.207 79.5692 168.804 79.6546 169.583H78.3266C78.2732 169.177 78.0972 168.863 77.7986 168.639C77.5106 168.404 77.1212 168.287 76.6306 168.287C76.1506 168.287 75.7772 168.388 75.5106 168.591C75.2546 168.793 75.1266 169.06 75.1266 169.391C75.1266 169.711 75.2919 169.961 75.6226 170.143C75.9639 170.324 76.4226 170.479 76.9986 170.607C77.4892 170.713 77.9532 170.847 78.3906 171.007C78.8386 171.156 79.2012 171.385 79.4786 171.695C79.7666 171.993 79.9106 172.431 79.9106 173.007C79.9212 173.721 79.6492 174.313 79.0946 174.783C78.5506 175.241 77.8092 175.471 76.8706 175.471ZM84.7266 175.471C83.7879 175.471 83.0412 175.188 82.4866 174.623C81.9319 174.047 81.6546 173.167 81.6546 171.983V167.343H82.9986V171.839C82.9986 173.492 83.6759 174.319 85.0306 174.319C85.7239 174.319 86.2946 174.073 86.7426 173.583C87.2012 173.081 87.4306 172.372 87.4306 171.455V167.343H88.7746V175.279H87.5586L87.4626 173.855C87.2172 174.356 86.8492 174.751 86.3586 175.039C85.8786 175.327 85.3346 175.471 84.7266 175.471ZM90.9868 175.279V167.343H92.2028L92.2988 168.495C92.5548 168.068 92.8961 167.737 93.3228 167.503C93.7495 167.268 94.2295 167.151 94.7628 167.151C95.3921 167.151 95.9308 167.279 96.3788 167.535C96.8375 167.791 97.1895 168.18 97.4348 168.703C97.7121 168.223 98.0908 167.844 98.5708 167.567C99.0615 167.289 99.5895 167.151 100.155 167.151C101.104 167.151 101.861 167.439 102.427 168.015C102.992 168.58 103.275 169.455 103.275 170.639V175.279H101.947V170.783C101.947 169.961 101.781 169.343 101.451 168.927C101.12 168.511 100.645 168.303 100.027 168.303C99.3868 168.303 98.8535 168.553 98.4268 169.055C98.0108 169.545 97.8028 170.249 97.8028 171.167V175.279H96.4588V170.783C96.4588 169.961 96.2935 169.343 95.9628 168.927C95.6321 168.511 95.1575 168.303 94.5388 168.303C93.9095 168.303 93.3815 168.553 92.9548 169.055C92.5388 169.545 92.3308 170.249 92.3308 171.167V175.279H90.9868ZM113.134 175.471C112.344 175.471 111.651 175.289 111.054 174.927C110.467 174.564 110.008 174.068 109.678 173.439C109.358 172.809 109.198 172.095 109.198 171.295C109.198 170.495 109.363 169.785 109.694 169.167C110.024 168.537 110.483 168.047 111.07 167.695C111.656 167.332 112.35 167.151 113.15 167.151C113.8 167.151 114.376 167.284 114.878 167.551C115.379 167.817 115.768 168.191 116.046 168.671V163.759H117.39V175.279H116.174L116.046 173.967C115.79 174.351 115.422 174.697 114.942 175.007C114.462 175.316 113.859 175.471 113.134 175.471ZM113.278 174.303C113.811 174.303 114.28 174.18 114.686 173.935C115.102 173.679 115.422 173.327 115.646 172.879C115.88 172.431 115.998 171.908 115.998 171.311C115.998 170.713 115.88 170.191 115.646 169.743C115.422 169.295 115.102 168.948 114.686 168.703C114.28 168.447 113.811 168.319 113.278 168.319C112.755 168.319 112.286 168.447 111.87 168.703C111.464 168.948 111.144 169.295 110.91 169.743C110.686 170.191 110.574 170.713 110.574 171.311C110.574 171.908 110.686 172.431 110.91 172.879C111.144 173.327 111.464 173.679 111.87 173.935C112.286 174.18 112.755 174.303 113.278 174.303ZM123.197 175.471C122.45 175.471 121.778 175.3 121.181 174.959C120.583 174.617 120.109 174.137 119.757 173.519C119.415 172.889 119.245 172.153 119.245 171.311C119.245 170.468 119.421 169.737 119.773 169.119C120.125 168.489 120.599 168.004 121.197 167.663C121.805 167.321 122.482 167.151 123.229 167.151C123.975 167.151 124.647 167.321 125.245 167.663C125.842 168.004 126.311 168.489 126.653 169.119C127.005 169.737 127.181 170.468 127.181 171.311C127.181 172.153 127.005 172.889 126.653 173.519C126.301 174.137 125.821 174.617 125.213 174.959C124.615 175.3 123.943 175.471 123.197 175.471ZM123.197 174.319C123.655 174.319 124.082 174.207 124.477 173.983C124.871 173.759 125.191 173.423 125.437 172.975C125.682 172.527 125.805 171.972 125.805 171.311C125.805 170.649 125.682 170.095 125.437 169.647C125.202 169.199 124.887 168.863 124.493 168.639C124.098 168.415 123.677 168.303 123.229 168.303C122.77 168.303 122.343 168.415 121.949 168.639C121.554 168.863 121.234 169.199 120.989 169.647C120.743 170.095 120.621 170.649 120.621 171.311C120.621 171.972 120.743 172.527 120.989 172.975C121.234 173.423 121.549 173.759 121.933 173.983C122.327 174.207 122.749 174.319 123.197 174.319ZM129.049 175.279V163.759H130.393V175.279H129.049ZM136.212 175.471C135.466 175.471 134.794 175.3 134.196 174.959C133.599 174.617 133.124 174.137 132.772 173.519C132.431 172.889 132.26 172.153 132.26 171.311C132.26 170.468 132.436 169.737 132.788 169.119C133.14 168.489 133.615 168.004 134.212 167.663C134.82 167.321 135.498 167.151 136.244 167.151C136.991 167.151 137.663 167.321 138.26 167.663C138.858 168.004 139.327 168.489 139.668 169.119C140.02 169.737 140.196 170.468 140.196 171.311C140.196 172.153 140.02 172.889 139.668 173.519C139.316 174.137 138.836 174.617 138.228 174.959C137.631 175.3 136.959 175.471 136.212 175.471ZM136.212 174.319C136.671 174.319 137.098 174.207 137.492 173.983C137.887 173.759 138.207 173.423 138.452 172.975C138.698 172.527 138.82 171.972 138.82 171.311C138.82 170.649 138.698 170.095 138.452 169.647C138.218 169.199 137.903 168.863 137.508 168.639C137.114 168.415 136.692 168.303 136.244 168.303C135.786 168.303 135.359 168.415 134.964 168.639C134.57 168.863 134.25 169.199 134.004 169.647C133.759 170.095 133.636 170.649 133.636 171.311C133.636 171.972 133.759 172.527 134.004 172.975C134.25 173.423 134.564 173.759 134.948 173.983C135.343 174.207 135.764 174.319 136.212 174.319ZM142.065 175.279V167.343H143.281L143.393 168.863C143.638 168.34 144.012 167.924 144.513 167.615C145.014 167.305 145.633 167.151 146.369 167.151V168.559H146.001C145.532 168.559 145.1 168.644 144.705 168.815C144.31 168.975 143.996 169.252 143.761 169.647C143.526 170.041 143.409 170.585 143.409 171.279V175.279H142.065ZM155.152 175.471C154.202 175.471 153.413 175.231 152.784 174.751C152.154 174.271 151.786 173.62 151.68 172.799H153.056C153.141 173.215 153.36 173.577 153.712 173.887C154.074 174.185 154.56 174.335 155.168 174.335C155.733 174.335 156.149 174.217 156.416 173.983C156.682 173.737 156.816 173.449 156.816 173.119C156.816 172.639 156.64 172.319 156.288 172.159C155.946 171.999 155.461 171.855 154.832 171.727C154.405 171.641 153.978 171.519 153.552 171.359C153.125 171.199 152.768 170.975 152.48 170.687C152.192 170.388 152.048 169.999 152.048 169.519C152.048 168.825 152.304 168.26 152.816 167.823C153.338 167.375 154.042 167.151 154.928 167.151C155.77 167.151 156.458 167.364 156.992 167.791C157.536 168.207 157.85 168.804 157.936 169.583H156.608C156.554 169.177 156.378 168.863 156.08 168.639C155.792 168.404 155.402 168.287 154.912 168.287C154.432 168.287 154.058 168.388 153.792 168.591C153.536 168.793 153.408 169.06 153.408 169.391C153.408 169.711 153.573 169.961 153.904 170.143C154.245 170.324 154.704 170.479 155.28 170.607C155.77 170.713 156.234 170.847 156.672 171.007C157.12 171.156 157.482 171.385 157.76 171.695C158.048 171.993 158.192 172.431 158.192 173.007C158.202 173.721 157.93 174.313 157.376 174.783C156.832 175.241 156.09 175.471 155.152 175.471ZM160.928 165.583C160.661 165.583 160.437 165.497 160.256 165.327C160.085 165.145 160 164.921 160 164.655C160 164.399 160.085 164.185 160.256 164.015C160.437 163.844 160.661 163.759 160.928 163.759C161.184 163.759 161.402 163.844 161.584 164.015C161.765 164.185 161.856 164.399 161.856 164.655C161.856 164.921 161.765 165.145 161.584 165.327C161.402 165.497 161.184 165.583 160.928 165.583ZM160.256 175.279V167.343H161.6V175.279H160.256ZM167.076 175.279C166.351 175.279 165.78 175.103 165.364 174.751C164.948 174.399 164.74 173.764 164.74 172.847V168.479H163.364V167.343H164.74L164.916 165.439H166.084V167.343H168.42V168.479H166.084V172.847C166.084 173.348 166.185 173.689 166.388 173.871C166.591 174.041 166.948 174.127 167.46 174.127H168.292V175.279H167.076ZM177.002 175.471C176.34 175.471 175.791 175.359 175.354 175.135C174.916 174.911 174.591 174.612 174.378 174.239C174.164 173.865 174.058 173.46 174.058 173.023C174.058 172.212 174.367 171.588 174.986 171.151C175.604 170.713 176.447 170.495 177.514 170.495H179.658V170.399C179.658 169.705 179.476 169.183 179.114 168.831C178.751 168.468 178.266 168.287 177.658 168.287C177.135 168.287 176.682 168.42 176.298 168.687C175.924 168.943 175.69 169.321 175.594 169.823H174.218C174.271 169.247 174.463 168.761 174.794 168.367C175.135 167.972 175.556 167.673 176.058 167.471C176.559 167.257 177.092 167.151 177.658 167.151C178.767 167.151 179.599 167.449 180.154 168.047C180.719 168.633 181.002 169.417 181.002 170.399V175.279H179.802L179.722 173.855C179.498 174.303 179.167 174.687 178.73 175.007C178.303 175.316 177.727 175.471 177.002 175.471ZM177.21 174.335C177.722 174.335 178.159 174.201 178.522 173.935C178.895 173.668 179.178 173.321 179.37 172.895C179.562 172.468 179.658 172.02 179.658 171.551V171.535H177.626C176.836 171.535 176.276 171.673 175.946 171.951C175.626 172.217 175.466 172.553 175.466 172.959C175.466 173.375 175.615 173.711 175.914 173.967C176.223 174.212 176.655 174.335 177.21 174.335ZM183.018 175.279V167.343H184.234L184.33 168.495C184.586 168.068 184.927 167.737 185.354 167.503C185.781 167.268 186.261 167.151 186.794 167.151C187.423 167.151 187.962 167.279 188.41 167.535C188.869 167.791 189.221 168.18 189.466 168.703C189.743 168.223 190.122 167.844 190.602 167.567C191.093 167.289 191.621 167.151 192.186 167.151C193.135 167.151 193.893 167.439 194.458 168.015C195.023 168.58 195.306 169.455 195.306 170.639V175.279H193.978V170.783C193.978 169.961 193.813 169.343 193.482 168.927C193.151 168.511 192.677 168.303 192.058 168.303C191.418 168.303 190.885 168.553 190.458 169.055C190.042 169.545 189.834 170.249 189.834 171.167V175.279H188.49V170.783C188.49 169.961 188.325 169.343 187.994 168.927C187.663 168.511 187.189 168.303 186.57 168.303C185.941 168.303 185.413 168.553 184.986 169.055C184.57 169.545 184.362 170.249 184.362 171.167V175.279H183.018ZM200.899 175.471C200.141 175.471 199.469 175.3 198.883 174.959C198.296 174.607 197.832 174.121 197.491 173.503C197.16 172.884 196.995 172.153 196.995 171.311C196.995 170.479 197.16 169.753 197.491 169.135C197.821 168.505 198.28 168.02 198.867 167.679C199.464 167.327 200.152 167.151 200.931 167.151C201.699 167.151 202.36 167.327 202.915 167.679C203.48 168.02 203.912 168.473 204.211 169.039C204.509 169.604 204.659 170.212 204.659 170.863C204.659 170.98 204.653 171.097 204.643 171.215C204.643 171.332 204.643 171.465 204.643 171.615H198.323C198.355 172.223 198.493 172.729 198.739 173.135C198.995 173.529 199.309 173.828 199.683 174.031C200.067 174.233 200.472 174.335 200.899 174.335C201.453 174.335 201.917 174.207 202.291 173.951C202.664 173.695 202.936 173.348 203.107 172.911H204.435C204.221 173.647 203.811 174.26 203.203 174.751C202.605 175.231 201.837 175.471 200.899 175.471ZM200.899 168.287C200.259 168.287 199.688 168.484 199.187 168.879C198.696 169.263 198.413 169.828 198.339 170.575H203.331C203.299 169.86 203.053 169.3 202.595 168.895C202.136 168.489 201.571 168.287 200.899 168.287ZM209.31 175.279C208.585 175.279 208.014 175.103 207.598 174.751C207.182 174.399 206.974 173.764 206.974 172.847V168.479H205.598V167.343H206.974L207.15 165.439H208.318V167.343H210.654V168.479H208.318V172.847C208.318 173.348 208.42 173.689 208.622 173.871C208.825 174.041 209.182 174.127 209.694 174.127H210.526V175.279H209.31ZM212.118 177.183L213.046 173.647H214.438L213.046 177.183H212.118ZM223.916 175.471C223.159 175.471 222.476 175.3 221.868 174.959C221.271 174.607 220.796 174.121 220.444 173.503C220.103 172.873 219.932 172.143 219.932 171.311C219.932 170.479 220.103 169.753 220.444 169.135C220.796 168.505 221.271 168.02 221.868 167.679C222.476 167.327 223.159 167.151 223.916 167.151C224.855 167.151 225.644 167.396 226.284 167.887C226.935 168.377 227.345 169.033 227.516 169.855H226.14C226.033 169.364 225.772 168.985 225.356 168.719C224.94 168.441 224.455 168.303 223.9 168.303C223.452 168.303 223.031 168.415 222.636 168.639C222.241 168.863 221.921 169.199 221.676 169.647C221.431 170.095 221.308 170.649 221.308 171.311C221.308 171.972 221.431 172.527 221.676 172.975C221.921 173.423 222.241 173.764 222.636 173.999C223.031 174.223 223.452 174.335 223.9 174.335C224.455 174.335 224.94 174.201 225.356 173.935C225.772 173.657 226.033 173.268 226.14 172.767H227.516C227.356 173.567 226.951 174.217 226.3 174.719C225.649 175.22 224.855 175.471 223.916 175.471ZM233.009 175.471C232.262 175.471 231.59 175.3 230.993 174.959C230.396 174.617 229.921 174.137 229.569 173.519C229.228 172.889 229.057 172.153 229.057 171.311C229.057 170.468 229.233 169.737 229.585 169.119C229.937 168.489 230.412 168.004 231.009 167.663C231.617 167.321 232.294 167.151 233.041 167.151C233.788 167.151 234.46 167.321 235.057 167.663C235.654 168.004 236.124 168.489 236.465 169.119C236.817 169.737 236.993 170.468 236.993 171.311C236.993 172.153 236.817 172.889 236.465 173.519C236.113 174.137 235.633 174.617 235.025 174.959C234.428 175.3 233.756 175.471 233.009 175.471ZM233.009 174.319C233.468 174.319 233.894 174.207 234.289 173.983C234.684 173.759 235.004 173.423 235.249 172.975C235.494 172.527 235.617 171.972 235.617 171.311C235.617 170.649 235.494 170.095 235.249 169.647C235.014 169.199 234.7 168.863 234.305 168.639C233.91 168.415 233.489 168.303 233.041 168.303C232.582 168.303 232.156 168.415 231.761 168.639C231.366 168.863 231.046 169.199 230.801 169.647C230.556 170.095 230.433 170.649 230.433 171.311C230.433 171.972 230.556 172.527 230.801 172.975C231.046 173.423 231.361 173.759 231.745 173.983C232.14 174.207 232.561 174.319 233.009 174.319ZM238.862 175.279V167.343H240.078L240.158 168.767C240.414 168.265 240.782 167.871 241.262 167.583C241.742 167.295 242.286 167.151 242.894 167.151C243.832 167.151 244.579 167.439 245.134 168.015C245.699 168.58 245.982 169.455 245.982 170.639V175.279H244.638V170.783C244.638 169.129 243.955 168.303 242.59 168.303C241.907 168.303 241.336 168.553 240.878 169.055C240.43 169.545 240.206 170.249 240.206 171.167V175.279H238.862ZM251.058 175.471C250.109 175.471 249.319 175.231 248.69 174.751C248.061 174.271 247.693 173.62 247.586 172.799H248.962C249.047 173.215 249.266 173.577 249.618 173.887C249.981 174.185 250.466 174.335 251.074 174.335C251.639 174.335 252.055 174.217 252.322 173.983C252.589 173.737 252.722 173.449 252.722 173.119C252.722 172.639 252.546 172.319 252.194 172.159C251.853 171.999 251.367 171.855 250.738 171.727C250.311 171.641 249.885 171.519 249.458 171.359C249.031 171.199 248.674 170.975 248.386 170.687C248.098 170.388 247.954 169.999 247.954 169.519C247.954 168.825 248.21 168.26 248.722 167.823C249.245 167.375 249.949 167.151 250.834 167.151C251.677 167.151 252.365 167.364 252.898 167.791C253.442 168.207 253.757 168.804 253.842 169.583H252.514C252.461 169.177 252.285 168.863 251.986 168.639C251.698 168.404 251.309 168.287 250.818 168.287C250.338 168.287 249.965 168.388 249.698 168.591C249.442 168.793 249.314 169.06 249.314 169.391C249.314 169.711 249.479 169.961 249.81 170.143C250.151 170.324 250.61 170.479 251.186 170.607C251.677 170.713 252.141 170.847 252.578 171.007C253.026 171.156 253.389 171.385 253.666 171.695C253.954 171.993 254.098 172.431 254.098 173.007C254.109 173.721 253.837 174.313 253.282 174.783C252.738 175.241 251.997 175.471 251.058 175.471ZM259.586 175.471C258.829 175.471 258.157 175.3 257.57 174.959C256.983 174.607 256.519 174.121 256.178 173.503C255.847 172.884 255.682 172.153 255.682 171.311C255.682 170.479 255.847 169.753 256.178 169.135C256.509 168.505 256.967 168.02 257.554 167.679C258.151 167.327 258.839 167.151 259.618 167.151C260.386 167.151 261.047 167.327 261.602 167.679C262.167 168.02 262.599 168.473 262.898 169.039C263.197 169.604 263.346 170.212 263.346 170.863C263.346 170.98 263.341 171.097 263.33 171.215C263.33 171.332 263.33 171.465 263.33 171.615H257.01C257.042 172.223 257.181 172.729 257.426 173.135C257.682 173.529 257.997 173.828 258.37 174.031C258.754 174.233 259.159 174.335 259.586 174.335C260.141 174.335 260.605 174.207 260.978 173.951C261.351 173.695 261.623 173.348 261.794 172.911H263.122C262.909 173.647 262.498 174.26 261.89 174.751C261.293 175.231 260.525 175.471 259.586 175.471ZM259.586 168.287C258.946 168.287 258.375 168.484 257.874 168.879C257.383 169.263 257.101 169.828 257.026 170.575H262.018C261.986 169.86 261.741 169.3 261.282 168.895C260.823 168.489 260.258 168.287 259.586 168.287ZM268.775 175.471C268.018 175.471 267.335 175.3 266.727 174.959C266.13 174.607 265.655 174.121 265.303 173.503C264.962 172.873 264.791 172.143 264.791 171.311C264.791 170.479 264.962 169.753 265.303 169.135C265.655 168.505 266.13 168.02 266.727 167.679C267.335 167.327 268.018 167.151 268.775 167.151C269.714 167.151 270.503 167.396 271.143 167.887C271.794 168.377 272.205 169.033 272.375 169.855H270.999C270.893 169.364 270.631 168.985 270.215 168.719C269.799 168.441 269.314 168.303 268.759 168.303C268.311 168.303 267.89 168.415 267.495 168.639C267.101 168.863 266.781 169.199 266.535 169.647C266.29 170.095 266.167 170.649 266.167 171.311C266.167 171.972 266.29 172.527 266.535 172.975C266.781 173.423 267.101 173.764 267.495 173.999C267.89 174.223 268.311 174.335 268.759 174.335C269.314 174.335 269.799 174.201 270.215 173.935C270.631 173.657 270.893 173.268 270.999 172.767H272.375C272.215 173.567 271.81 174.217 271.159 174.719C270.509 175.22 269.714 175.471 268.775 175.471ZM277.17 175.279C276.444 175.279 275.874 175.103 275.458 174.751C275.042 174.399 274.834 173.764 274.834 172.847V168.479H273.458V167.343H274.834L275.01 165.439H276.178V167.343H278.514V168.479H276.178V172.847C276.178 173.348 276.279 173.689 276.482 173.871C276.684 174.041 277.042 174.127 277.554 174.127H278.386V175.279H277.17ZM283.57 175.471C282.813 175.471 282.141 175.3 281.554 174.959C280.968 174.607 280.504 174.121 280.162 173.503C279.832 172.884 279.666 172.153 279.666 171.311C279.666 170.479 279.832 169.753 280.162 169.135C280.493 168.505 280.952 168.02 281.538 167.679C282.136 167.327 282.824 167.151 283.602 167.151C284.37 167.151 285.032 167.327 285.586 167.679C286.152 168.02 286.584 168.473 286.882 169.039C287.181 169.604 287.33 170.212 287.33 170.863C287.33 170.98 287.325 171.097 287.314 171.215C287.314 171.332 287.314 171.465 287.314 171.615H280.994C281.026 172.223 281.165 172.729 281.41 173.135C281.666 173.529 281.981 173.828 282.354 174.031C282.738 174.233 283.144 174.335 283.57 174.335C284.125 174.335 284.589 174.207 284.962 173.951C285.336 173.695 285.608 173.348 285.778 172.911H287.106C286.893 173.647 286.482 174.26 285.874 174.751C285.277 175.231 284.509 175.471 283.57 175.471ZM283.57 168.287C282.93 168.287 282.36 168.484 281.858 168.879C281.368 169.263 281.085 169.828 281.01 170.575H286.002C285.97 169.86 285.725 169.3 285.266 168.895C284.808 168.489 284.242 168.287 283.57 168.287ZM291.982 175.279C291.257 175.279 290.686 175.103 290.27 174.751C289.854 174.399 289.646 173.764 289.646 172.847V168.479H288.27V167.343H289.646L289.822 165.439H290.99V167.343H293.326V168.479H290.99V172.847C290.99 173.348 291.092 173.689 291.294 173.871C291.497 174.041 291.854 174.127 292.366 174.127H293.198V175.279H291.982ZM297.93 175.471C296.991 175.471 296.244 175.188 295.69 174.623C295.135 174.047 294.858 173.167 294.858 171.983V167.343H296.202V171.839C296.202 173.492 296.879 174.319 298.234 174.319C298.927 174.319 299.498 174.073 299.946 173.583C300.404 173.081 300.634 172.372 300.634 171.455V167.343H301.978V175.279H300.762L300.666 173.855C300.42 174.356 300.052 174.751 299.562 175.039C299.082 175.327 298.538 175.471 297.93 175.471ZM304.19 175.279V167.343H305.406L305.518 168.863C305.763 168.34 306.137 167.924 306.638 167.615C307.139 167.305 307.758 167.151 308.494 167.151V168.559H308.126C307.657 168.559 307.225 168.644 306.83 168.815C306.435 168.975 306.121 169.252 305.886 169.647C305.651 170.041 305.534 170.585 305.534 171.279V175.279H304.19ZM107.557 199.471C106.895 199.471 106.346 199.359 105.909 199.135C105.471 198.911 105.146 198.612 104.933 198.239C104.719 197.865 104.613 197.46 104.613 197.023C104.613 196.212 104.922 195.588 105.541 195.151C106.159 194.713 107.002 194.495 108.069 194.495H110.213V194.399C110.213 193.705 110.031 193.183 109.669 192.831C109.306 192.468 108.821 192.287 108.213 192.287C107.69 192.287 107.237 192.42 106.853 192.687C106.479 192.943 106.245 193.321 106.149 193.823H104.773C104.826 193.247 105.018 192.761 105.349 192.367C105.69 191.972 106.111 191.673 106.613 191.471C107.114 191.257 107.647 191.151 108.213 191.151C109.322 191.151 110.154 191.449 110.709 192.047C111.274 192.633 111.557 193.417 111.557 194.399V199.279H110.357L110.277 197.855C110.053 198.303 109.722 198.687 109.285 199.007C108.858 199.316 108.282 199.471 107.557 199.471ZM107.765 198.335C108.277 198.335 108.714 198.201 109.077 197.935C109.45 197.668 109.733 197.321 109.925 196.895C110.117 196.468 110.213 196.02 110.213 195.551V195.535H108.181C107.391 195.535 106.831 195.673 106.501 195.951C106.181 196.217 106.021 196.553 106.021 196.959C106.021 197.375 106.17 197.711 106.469 197.967C106.778 198.212 107.21 198.335 107.765 198.335ZM117.173 199.471C116.383 199.471 115.69 199.289 115.093 198.927C114.506 198.564 114.047 198.068 113.717 197.439C113.397 196.809 113.237 196.095 113.237 195.295C113.237 194.495 113.402 193.785 113.733 193.167C114.063 192.537 114.522 192.047 115.109 191.695C115.695 191.332 116.389 191.151 117.189 191.151C117.839 191.151 118.415 191.284 118.917 191.551C119.418 191.817 119.807 192.191 120.085 192.671V187.759H121.429V199.279H120.213L120.085 197.967C119.829 198.351 119.461 198.697 118.981 199.007C118.501 199.316 117.898 199.471 117.173 199.471ZM117.317 198.303C117.85 198.303 118.319 198.18 118.725 197.935C119.141 197.679 119.461 197.327 119.685 196.879C119.919 196.431 120.037 195.908 120.037 195.311C120.037 194.713 119.919 194.191 119.685 193.743C119.461 193.295 119.141 192.948 118.725 192.703C118.319 192.447 117.85 192.319 117.317 192.319C116.794 192.319 116.325 192.447 115.909 192.703C115.503 192.948 115.183 193.295 114.949 193.743C114.725 194.191 114.613 194.713 114.613 195.311C114.613 195.908 114.725 196.431 114.949 196.879C115.183 197.327 115.503 197.679 115.909 197.935C116.325 198.18 116.794 198.303 117.317 198.303ZM124.436 189.583C124.169 189.583 123.945 189.497 123.764 189.327C123.593 189.145 123.508 188.921 123.508 188.655C123.508 188.399 123.593 188.185 123.764 188.015C123.945 187.844 124.169 187.759 124.436 187.759C124.692 187.759 124.91 187.844 125.092 188.015C125.273 188.185 125.364 188.399 125.364 188.655C125.364 188.921 125.273 189.145 125.092 189.327C124.91 189.497 124.692 189.583 124.436 189.583ZM123.764 199.279V191.343H125.108V199.279H123.764ZM127.448 202.799V191.343H128.664L128.792 192.655C129.048 192.271 129.41 191.924 129.88 191.615C130.36 191.305 130.968 191.151 131.704 191.151C132.493 191.151 133.181 191.332 133.768 191.695C134.354 192.057 134.808 192.553 135.128 193.183C135.458 193.812 135.624 194.527 135.624 195.327C135.624 196.127 135.458 196.841 135.128 197.471C134.808 198.089 134.349 198.58 133.752 198.943C133.165 199.295 132.477 199.471 131.688 199.471C131.037 199.471 130.456 199.337 129.944 199.071C129.442 198.804 129.058 198.431 128.792 197.951V202.799H127.448ZM131.544 198.303C132.077 198.303 132.546 198.18 132.952 197.935C133.357 197.679 133.677 197.327 133.912 196.879C134.146 196.431 134.264 195.908 134.264 195.311C134.264 194.713 134.146 194.191 133.912 193.743C133.677 193.295 133.357 192.948 132.952 192.703C132.546 192.447 132.077 192.319 131.544 192.319C131.01 192.319 130.541 192.447 130.136 192.703C129.73 192.948 129.41 193.295 129.176 193.743C128.941 194.191 128.824 194.713 128.824 195.311C128.824 195.908 128.941 196.431 129.176 196.879C129.41 197.327 129.73 197.679 130.136 197.935C130.541 198.18 131.01 198.303 131.544 198.303ZM138.311 189.583C138.044 189.583 137.82 189.497 137.639 189.327C137.468 189.145 137.383 188.921 137.383 188.655C137.383 188.399 137.468 188.185 137.639 188.015C137.82 187.844 138.044 187.759 138.311 187.759C138.567 187.759 138.785 187.844 138.967 188.015C139.148 188.185 139.239 188.399 139.239 188.655C139.239 188.921 139.148 189.145 138.967 189.327C138.785 189.497 138.567 189.583 138.311 189.583ZM137.639 199.279V191.343H138.983V199.279H137.639ZM144.363 199.471C143.413 199.471 142.624 199.231 141.995 198.751C141.365 198.271 140.997 197.62 140.891 196.799H142.267C142.352 197.215 142.571 197.577 142.923 197.887C143.285 198.185 143.771 198.335 144.379 198.335C144.944 198.335 145.36 198.217 145.627 197.983C145.893 197.737 146.027 197.449 146.027 197.119C146.027 196.639 145.851 196.319 145.499 196.159C145.157 195.999 144.672 195.855 144.043 195.727C143.616 195.641 143.189 195.519 142.763 195.359C142.336 195.199 141.979 194.975 141.691 194.687C141.403 194.388 141.259 193.999 141.259 193.519C141.259 192.825 141.515 192.26 142.027 191.823C142.549 191.375 143.253 191.151 144.139 191.151C144.981 191.151 145.669 191.364 146.203 191.791C146.747 192.207 147.061 192.804 147.147 193.583H145.819C145.765 193.177 145.589 192.863 145.291 192.639C145.003 192.404 144.613 192.287 144.123 192.287C143.643 192.287 143.269 192.388 143.003 192.591C142.747 192.793 142.619 193.06 142.619 193.391C142.619 193.711 142.784 193.961 143.115 194.143C143.456 194.324 143.915 194.479 144.491 194.607C144.981 194.713 145.445 194.847 145.883 195.007C146.331 195.156 146.693 195.385 146.971 195.695C147.259 195.993 147.403 196.431 147.403 197.007C147.413 197.721 147.141 198.313 146.587 198.783C146.043 199.241 145.301 199.471 144.363 199.471ZM152.971 199.471C152.213 199.471 151.531 199.3 150.923 198.959C150.325 198.607 149.851 198.121 149.499 197.503C149.157 196.873 148.987 196.143 148.987 195.311C148.987 194.479 149.157 193.753 149.499 193.135C149.851 192.505 150.325 192.02 150.923 191.679C151.531 191.327 152.213 191.151 152.971 191.151C153.909 191.151 154.699 191.396 155.339 191.887C155.989 192.377 156.4 193.033 156.571 193.855H155.195C155.088 193.364 154.827 192.985 154.411 192.719C153.995 192.441 153.509 192.303 152.955 192.303C152.507 192.303 152.085 192.415 151.691 192.639C151.296 192.863 150.976 193.199 150.731 193.647C150.485 194.095 150.363 194.649 150.363 195.311C150.363 195.972 150.485 196.527 150.731 196.975C150.976 197.423 151.296 197.764 151.691 197.999C152.085 198.223 152.507 198.335 152.955 198.335C153.509 198.335 153.995 198.201 154.411 197.935C154.827 197.657 155.088 197.268 155.195 196.767H156.571C156.411 197.567 156.005 198.217 155.355 198.719C154.704 199.22 153.909 199.471 152.971 199.471ZM159.264 189.583C158.997 189.583 158.773 189.497 158.592 189.327C158.421 189.145 158.336 188.921 158.336 188.655C158.336 188.399 158.421 188.185 158.592 188.015C158.773 187.844 158.997 187.759 159.264 187.759C159.52 187.759 159.738 187.844 159.92 188.015C160.101 188.185 160.192 188.399 160.192 188.655C160.192 188.921 160.101 189.145 159.92 189.327C159.738 189.497 159.52 189.583 159.264 189.583ZM158.592 199.279V191.343H159.936V199.279H158.592ZM162.276 199.279V191.343H163.492L163.572 192.767C163.828 192.265 164.196 191.871 164.676 191.583C165.156 191.295 165.7 191.151 166.308 191.151C167.247 191.151 167.993 191.439 168.548 192.015C169.113 192.58 169.396 193.455 169.396 194.639V199.279H168.052V194.783C168.052 193.129 167.369 192.303 166.004 192.303C165.321 192.303 164.751 192.553 164.292 193.055C163.844 193.545 163.62 194.249 163.62 195.167V199.279H162.276ZM174.568 196.783C174.12 196.783 173.709 196.724 173.336 196.607L172.536 197.359C172.653 197.444 172.797 197.519 172.968 197.583C173.149 197.636 173.405 197.689 173.736 197.743C174.067 197.785 174.531 197.833 175.128 197.887C176.195 197.961 176.957 198.207 177.416 198.623C177.875 199.039 178.104 199.583 178.104 200.255C178.104 200.713 177.976 201.151 177.72 201.567C177.475 201.983 177.091 202.324 176.568 202.591C176.056 202.857 175.395 202.991 174.584 202.991C173.869 202.991 173.235 202.895 172.68 202.703C172.125 202.521 171.693 202.239 171.384 201.855C171.075 201.481 170.92 201.007 170.92 200.431C170.92 200.132 171 199.807 171.16 199.455C171.32 199.113 171.619 198.788 172.056 198.479C171.821 198.383 171.619 198.281 171.448 198.175C171.288 198.057 171.139 197.929 171 197.791V197.423L172.36 196.079C171.731 195.545 171.416 194.841 171.416 193.967C171.416 193.444 171.539 192.969 171.784 192.543C172.029 192.116 172.387 191.78 172.856 191.535C173.325 191.279 173.896 191.151 174.568 191.151C175.027 191.151 175.443 191.215 175.816 191.343H178.744V192.351L177.256 192.415C177.565 192.863 177.72 193.38 177.72 193.967C177.72 194.489 177.592 194.964 177.336 195.391C177.091 195.817 176.733 196.159 176.264 196.415C175.805 196.66 175.24 196.783 174.568 196.783ZM174.568 195.679C175.133 195.679 175.581 195.535 175.912 195.247C176.253 194.948 176.424 194.521 176.424 193.967C176.424 193.423 176.253 193.007 175.912 192.719C175.581 192.42 175.133 192.271 174.568 192.271C173.992 192.271 173.533 192.42 173.192 192.719C172.861 193.007 172.696 193.423 172.696 193.967C172.696 194.521 172.861 194.948 173.192 195.247C173.533 195.535 173.992 195.679 174.568 195.679ZM172.232 200.303C172.232 200.836 172.456 201.231 172.904 201.487C173.352 201.753 173.912 201.887 174.584 201.887C175.245 201.887 175.773 201.743 176.168 201.455C176.573 201.167 176.776 200.783 176.776 200.303C176.776 199.961 176.637 199.663 176.36 199.407C176.083 199.161 175.571 199.017 174.824 198.975C174.237 198.932 173.731 198.879 173.304 198.815C172.867 199.049 172.579 199.3 172.44 199.567C172.301 199.844 172.232 200.089 172.232 200.303ZM188.063 199.471C187.305 199.471 186.633 199.3 186.047 198.959C185.46 198.607 184.996 198.121 184.655 197.503C184.324 196.884 184.159 196.153 184.159 195.311C184.159 194.479 184.324 193.753 184.655 193.135C184.985 192.505 185.444 192.02 186.031 191.679C186.628 191.327 187.316 191.151 188.095 191.151C188.863 191.151 189.524 191.327 190.079 191.679C190.644 192.02 191.076 192.473 191.375 193.039C191.673 193.604 191.823 194.212 191.823 194.863C191.823 194.98 191.817 195.097 191.807 195.215C191.807 195.332 191.807 195.465 191.807 195.615H185.487C185.519 196.223 185.657 196.729 185.903 197.135C186.159 197.529 186.473 197.828 186.847 198.031C187.231 198.233 187.636 198.335 188.063 198.335C188.617 198.335 189.081 198.207 189.455 197.951C189.828 197.695 190.1 197.348 190.271 196.911H191.599C191.385 197.647 190.975 198.26 190.367 198.751C189.769 199.231 189.001 199.471 188.063 199.471ZM188.063 192.287C187.423 192.287 186.852 192.484 186.351 192.879C185.86 193.263 185.577 193.828 185.503 194.575H190.495C190.463 193.86 190.217 193.3 189.759 192.895C189.3 192.489 188.735 192.287 188.063 192.287ZM193.604 199.279V187.759H194.948V199.279H193.604ZM197.967 189.583C197.7 189.583 197.476 189.497 197.295 189.327C197.124 189.145 197.039 188.921 197.039 188.655C197.039 188.399 197.124 188.185 197.295 188.015C197.476 187.844 197.7 187.759 197.967 187.759C198.223 187.759 198.442 187.844 198.623 188.015C198.804 188.185 198.895 188.399 198.895 188.655C198.895 188.921 198.804 189.145 198.623 189.327C198.442 189.497 198.223 189.583 197.967 189.583ZM197.295 199.279V191.343H198.639V199.279H197.295ZM204.115 199.279C203.39 199.279 202.819 199.103 202.403 198.751C201.987 198.399 201.779 197.764 201.779 196.847V192.479H200.403V191.343H201.779L201.955 189.439H203.123V191.343H205.459V192.479H203.123V196.847C203.123 197.348 203.224 197.689 203.427 197.871C203.63 198.041 203.987 198.127 204.499 198.127H205.331V199.279H204.115ZM207.631 199.359C207.364 199.359 207.14 199.273 206.959 199.103C206.788 198.921 206.703 198.703 206.703 198.447C206.703 198.191 206.788 197.977 206.959 197.807C207.14 197.625 207.364 197.535 207.631 197.535C207.887 197.535 208.1 197.625 208.271 197.807C208.452 197.977 208.543 198.191 208.543 198.447C208.543 198.703 208.452 198.921 208.271 199.103C208.1 199.273 207.887 199.359 207.631 199.359Z" fill="#006347"/>
<g filter="url(#filter0_d_47_83)">
<rect x="105.818" width="100.249" height="95.8408" rx="15" fill="#006347"/>
</g>
<g clip-path="url(#clip0_47_83)">
<path d="M164.75 74.25H147.25L149 63.75H163L164.75 74.25Z" stroke="white" stroke-width="4" stroke-linecap="round" stroke-linejoin="round"/>
<path d="M142 74.25H170" stroke="white" stroke-width="4" stroke-linecap="round" stroke-linejoin="round"/>
<path d="M129.75 54.4166H182.25" stroke="white" stroke-width="4" stroke-linecap="round" stroke-linejoin="round"/>
<path d="M136.75 21.75H175.25C175.25 21.75 182.25 21.75 182.25 28.75V56.75C182.25 56.75 182.25 63.75 175.25 63.75H136.75C136.75 63.75 129.75 63.75 129.75 56.75V28.75C129.75 28.75 129.75 21.75 136.75 21.75Z" stroke="white" stroke-width="4" stroke-linecap="round" stroke-linejoin="round"/>
</g>
<defs>
<filter id="filter0_d_47_83" x="101.818" y="0" width="108.249" height="103.841" filterUnits="userSpaceOnUse" color-interpolation-filters="sRGB">
<feFlood flood-opacity="0" result="BackgroundImageFix"/>
<feColorMatrix in="SourceAlpha" type="matrix" values="0 0 0 0 0 0 0 0 0 0 0 0 0 0 0 0 0 0 127 0" result="hardAlpha"/>
<feOffset dy="4"/>
<feGaussianBlur stdDeviation="2"/>
<feComposite in2="hardAlpha" operator="out"/>
<feColorMatrix type="matrix" values="0 0 0 0 0 0 0 0 0 0 0 0 0 0 0 0 0 0 0.4 0"/>
<feBlend mode="normal" in2="BackgroundImageFix" result="effect1_dropShadow_47_83"/>
<feBlend mode="normal" in="SourceGraphic" in2="effect1_dropShadow_47_83" result="shape"/>
</filter>
<clipPath id="clip0_47_83">
<rect width="56" height="56" fill="white" transform="translate(128 20)"/>
</clipPath>
</defs>
</svg>
